<svg width="30" height="28" viewBox="0 0 30 28" fill="none" xmlns="http://www.w3.org/2000/svg">
<path d="M29.6757 18.4251C29.6757 18.4504 29.6757 18.4725 29.6757 18.4962C28.9564 20.6746 27.9304 22.5415 26.6784 24.2741C25.5355 25.847 24.1349 27.9637 21.634 27.9637C19.4731 27.9637 18.0377 26.5742 15.8229 26.5362C13.4802 26.4983 12.1918 27.6981 10.0498 28.0001C9.80477 28.0001 9.55974 28.0001 9.31945 28.0001C7.74654 27.7724 6.47714 26.5268 5.55236 25.4044C2.82545 22.0878 0.718215 17.8038 0.326172 12.3215C0.326172 11.784 0.326172 11.2481 0.326172 10.7107C0.492158 6.78707 2.39863 3.59698 4.93268 2.05094C6.27005 1.22891 8.10855 0.528607 10.1557 0.841609C11.0331 0.97756 11.9294 1.27792 12.7151 1.57511C13.4596 1.86124 14.3907 2.36868 15.2728 2.34181C15.8704 2.32442 16.4648 2.013 17.0671 1.79326C18.8312 1.15619 20.5607 0.425854 22.8402 0.768891C25.5798 1.18307 27.5242 2.4003 28.7256 4.27831C26.4081 5.75321 24.5759 7.97585 24.8889 11.7714C25.1672 15.2192 27.1716 17.2363 29.6757 18.4251Z" fill="#fff"/>
</svg>
