<svg width="36" height="36" viewBox="0 0 36 36" fill="none" xmlns="http://www.w3.org/2000/svg">
<path d="M24.9281 0C25.0119 0 25.0956 0 25.1842 0C25.3897 2.5388 24.4206 4.43578 23.2429 5.80951C22.0873 7.17376 20.5049 8.4969 17.9456 8.29614C17.7749 5.7937 18.7455 4.03741 19.9216 2.66684C21.0124 1.38954 23.0121 0.252931 24.9281 0Z" fill="white"/>
<path d="M32.6757 26.4251C32.6757 26.4504 32.6757 26.4725 32.6757 26.4962C31.9564 28.6746 30.9304 30.5415 29.6784 32.2741C28.5355 33.847 27.1349 35.9637 24.634 35.9637C22.4731 35.9637 21.0377 34.5742 18.8229 34.5362C16.4802 34.4983 15.1918 35.6981 13.0498 36.0001C12.8048 36.0001 12.5597 36.0001 12.3195 36.0001C10.7465 35.7724 9.47714 34.5268 8.55236 33.4044C5.82545 30.0878 3.71822 25.8038 3.32617 20.3215C3.32617 19.784 3.32617 19.2481 3.32617 18.7107C3.49216 14.7871 5.39863 11.597 7.93268 10.0509C9.27005 9.22891 11.1085 8.52861 13.1557 8.84161C14.0331 8.97756 14.9294 9.27792 15.7151 9.57511C16.4596 9.86124 17.3907 10.3687 18.2728 10.3418C18.8704 10.3244 19.4648 10.013 20.0671 9.79326C21.8312 9.15619 23.5607 8.42585 25.8402 8.76889C28.5798 9.18307 30.5242 10.4003 31.7256 12.2783C29.4081 13.7532 27.5759 15.9758 27.8889 19.7714C28.1672 23.2192 30.1716 25.2363 32.6757 26.4251Z" fill="white"/>
</svg>
