<svg width="26" height="30" viewBox="0 0 26 30" fill="none" xmlns="http://www.w3.org/2000/svg">
<path d="M24.7237 21.1413C22.8337 19.5438 21.75 17.2088 21.75 14.735V11.25C21.75 6.85125 18.4825 3.21 14.25 2.6V1.25C14.25 0.55875 13.69 0 13 0C12.31 0 11.75 0.55875 11.75 1.25V2.6C7.51625 3.21 4.25 6.85125 4.25 11.25V14.735C4.25 17.2088 3.16625 19.5438 1.265 21.1513C0.77875 21.5675 0.5 22.1725 0.5 22.8125C0.5 24.0188 1.48125 25 2.6875 25H23.3125C24.5187 25 25.5 24.0188 25.5 22.8125C25.5 22.1725 25.2212 21.5675 24.7237 21.1413Z" fill="#020057"/>
<path d="M13 30C15.2637 30 17.1575 28.3863 17.5925 26.25H8.40747C8.84247 28.3863 10.7362 30 13 30Z" fill="#020057"/>
</svg>
