<svg width="580" height="524" viewBox="0 0 580 524" fill="none" xmlns="http://www.w3.org/2000/svg">
<path d="M330.421 188.855L4.34375 377.74L253.919 524L579.999 334.698L330.421 188.855Z" fill="#E8EAF7"/>
<path d="M326.003 173.405L0 349.475L0.00673675 362.428L249.646 508.584L575.642 319.14L575.635 306.186L326.003 173.405Z" fill="#364085"/>
<path d="M330.421 153.805L4.34375 342.69L253.919 488.95L579.999 299.647L330.421 153.805Z" fill="white"/>
<path d="M500.81 281.924L525.476 267.614L522.764 266.03L498.091 280.343L435.948 244.293L460.846 229.846L458.134 228.262L433.226 242.712L369.413 205.691L394.551 191.105L391.838 189.518L366.688 204.11L305.322 168.514L302.596 170.095L363.965 205.694L301.604 241.871L240.187 206.242L237.462 207.823L298.881 243.452L235.069 280.474L173.606 244.811L170.88 246.392L232.35 282.051L170.207 318.101L108.69 282.415L105.964 283.996L167.485 319.682L105.103 355.876L43.5382 320.153L40.8125 321.734L102.38 357.454L65.9228 378.601L68.6317 380.193L105.106 359.031L168.918 396.053L132.117 417.399L134.826 418.987L171.637 397.634L233.78 433.683L196.657 455.221L199.365 456.809L236.499 435.264L291.609 467.237L294.332 465.656L239.222 433.683L301.604 397.489L356.693 429.451L359.416 427.867L304.329 395.908L366.469 359.859L421.535 391.808L424.261 390.227L369.195 358.281L433.007 321.259L488.053 353.195L490.775 351.614L435.729 319.678L498.091 283.501L553.114 315.423L555.836 313.842L500.81 281.924ZM366.688 207.275L430.503 244.297L368.141 280.474L304.329 243.452L366.688 207.275ZM301.604 245.03L365.416 282.051L301.604 319.073L237.791 282.051L301.604 245.03ZM235.072 283.629L298.885 320.651L236.741 356.7L172.929 319.682L235.072 283.629ZM107.825 357.454L170.207 321.259L234.019 358.281L171.637 394.475L107.825 357.454ZM236.503 432.105L174.359 396.056L236.741 359.862L298.885 395.911L236.503 432.105ZM301.604 394.33L239.464 358.281L301.604 322.232L363.747 358.281L301.604 394.33ZM366.469 356.7L304.329 320.651L368.141 283.629L430.281 319.678L366.469 356.7ZM433.007 318.101L370.864 282.051L433.226 245.874L495.369 281.924L433.007 318.101Z" fill="#E8EAF7"/>
<path d="M453.58 310.489L261.09 198.728L241.451 210.195L435.102 321.239L453.58 310.489Z" fill="#E8EAF7"/>
<path d="M167.786 341.768C188.482 341.768 205.26 331.36 205.26 318.521C205.26 305.682 188.482 295.274 167.786 295.274C147.09 295.274 130.312 305.682 130.312 318.521C130.312 331.36 147.09 341.768 167.786 341.768Z" fill="#AFB1F6"/>
<path d="M314.938 419.077C335.635 419.077 352.412 408.669 352.412 395.83C352.412 382.992 335.635 372.583 314.938 372.583C294.242 372.583 277.465 382.992 277.465 395.83C277.465 408.669 294.242 419.077 314.938 419.077Z" fill="#AFB1F6"/>
<path d="M78.322 360.155C91.6307 360.155 102.419 353.462 102.419 345.206C102.419 336.95 91.6307 330.257 78.322 330.257C65.0134 330.257 54.2246 336.95 54.2246 345.206C54.2246 353.462 65.0134 360.155 78.322 360.155Z" fill="#E8EAF7"/>
<path d="M463.077 134.18V301.215L451.922 309.368L451.71 309.523L445.848 305.843L369.06 261.748L228.934 166.745L217.775 66.1719V7.80056L218.492 7.37337L230.815 0L463.077 134.18Z" fill="#4346A3"/>
<path d="M463.077 134.18V301.215L451.922 309.368L451.71 309.523L445.848 305.843V146.771L451.922 142.331L463.077 134.18Z" fill="#364085"/>
<path d="M451.922 142.297V309.655L451.71 309.523L445.848 305.843L369.06 261.748L217.775 174.865V6.95984L218.492 7.37359L451.922 142.297Z" fill="#4346A3"/>
<path d="M233.56 84.1175V67.4131L223.132 61.3853V78.0897L233.56 84.1175Z" fill="white"/>
<path d="M223.132 84.7769V122.128L233.56 128.153V90.8047L223.132 84.7769Z" fill="white"/>
<path d="M430.055 139.081L239.062 28.6862V177.913L430.055 287.598V139.081Z" fill="white"/>
<path d="M247.693 170.011L420.38 269.185V258.495L247.693 159.321V170.011Z" fill="#E8EAF7"/>
<path d="M247.693 140.582V151.272L420.38 251.088V240.398L247.693 140.582Z" fill="#E8EAF7"/>
<path d="M420.382 163.647V174.337L330.174 122.192V111.505L420.382 163.647Z" fill="#E8EAF7"/>
<path d="M420.382 182.393V193.083L330.174 140.942V130.248L420.382 182.393Z" fill="#E8EAF7"/>
<path d="M420.382 201.139V211.829L330.174 159.688V148.998L420.382 201.139Z" fill="#E8EAF7"/>
<path d="M420.382 219.889V230.579L330.174 178.437V167.747L420.382 219.889Z" fill="#E8EAF7"/>
<path d="M323.26 175.107V107.196L247.693 63.5178V131.708L323.26 175.107Z" fill="#E8EAF7"/>
<path d="M445.501 228.988C448.106 227.466 448.081 222.575 445.443 218.065C442.805 213.556 438.555 211.134 435.949 212.657C433.344 214.179 433.37 219.07 436.007 223.58C438.645 228.089 442.895 230.511 445.501 228.988Z" fill="white"/>
<path d="M420.38 139.683L247.693 39.8706V57.4463L420.38 157.259V139.683Z" fill="#E8EAF7"/>
<path d="M295.704 159.459H291.229V183.106H295.704V159.459Z" fill="white"/>
<path d="M352.608 138.049H348.133V158.181H352.608V138.049Z" fill="white"/>
<path d="M395.126 144.759H390.65V164.892H395.126V144.759Z" fill="white"/>
<path d="M348.132 208.99H343.656V232.638H348.132V208.99Z" fill="white"/>
<path d="M387.773 234.239H383.298V257.886H387.773V234.239Z" fill="white"/>
<path d="M377.542 190.456H373.066V210.908H377.542V190.456Z" fill="white"/>
<path d="M475.506 251.66V297.178L471.306 299.869L471.084 300.01L466.885 297.585V256.739L471.286 254.146L475.506 251.66Z" fill="#3066C8"/>
<path d="M475.506 251.66L471.287 254.146L466.885 256.739L379.053 205.997V201.264L379.446 201.062L383.771 198.849L475.506 251.66Z" fill="#3066C8"/>
<path d="M471.307 254.159V300.141L471.085 300.01L466.885 297.585L379.053 246.816V200.836L379.446 201.062L471.287 254.145L471.307 254.159Z" fill="#2ED4E2"/>
<path d="M389.784 229.896L389.394 229.671V234.975L389.784 235.201L460.868 276.289V270.984L389.784 229.896Z" fill="white"/>
<path d="M389.394 240.058V245.36L389.784 245.585L460.868 286.673V281.369L389.784 240.284L389.394 240.058Z" fill="white"/>
<path d="M439.833 244.021L410.433 227.027V232.332L439.833 249.322V244.021Z" fill="white"/>
<path d="M408.32 115.397V146.428L405.457 148.261L405.305 148.362L402.441 146.707V118.862L405.44 117.096L408.32 115.397Z" fill="#3066C8"/>
<path d="M408.32 115.397L405.44 117.096L402.441 118.862L342.566 84.2723V81.0464L342.836 80.9085L345.783 79.3982L408.32 115.397Z" fill="#3066C8"/>
<path d="M405.457 117.102V148.449L405.305 148.362L402.441 146.707L342.566 112.097V80.7535L342.836 80.9083L405.44 117.096L405.457 117.102Z" fill="#2ED4E2"/>
<path d="M349.882 100.566L349.616 100.411V104.027L349.882 104.179L398.339 132.189V128.573L349.882 100.566Z" fill="white"/>
<path d="M349.616 107.492V111.105L349.882 111.26L398.339 139.266V135.654L349.882 107.644L349.616 107.492Z" fill="white"/>
<path d="M384 110.194L363.958 98.6088V102.221L384 113.806V110.194Z" fill="white"/>
<path d="M289.95 108.454V149.993L286.117 152.449L285.912 152.58L282.082 150.367V113.093L286.097 110.725L289.95 108.454Z" fill="#3066C8"/>
<path d="M289.949 108.454L286.096 110.725L282.082 113.093L201.929 66.7841V62.465L202.285 62.28L206.233 60.2617L289.949 108.454Z" fill="#4D86ED"/>
<path d="M286.116 110.738V152.698L285.911 152.58L282.082 150.367L201.929 104.037V62.0746L202.285 62.2798L286.096 110.725L286.116 110.738Z" fill="#2ED4E2"/>
<path d="M211.722 88.5942L211.365 88.389V93.2295L211.722 93.4347L276.591 130.93V126.09L211.722 88.5942Z" fill="white"/>
<path d="M211.365 97.8687V102.706L211.722 102.914L276.591 140.407V135.57L211.722 98.0738L211.365 97.8687Z" fill="white"/>
<path d="M257.393 101.485L230.563 85.9744V90.8148L257.393 106.325V101.485Z" fill="white"/>
<path d="M258.953 362.523L329.368 321.502L371.34 345.741L300.923 386.294L258.953 362.523Z" fill="#D1D4F5"/>
<path d="M200.205 237.011C208.907 242.083 202.032 240.711 202.032 240.711C205.088 247.583 198.368 250.331 195.615 238.42" fill="#FFBD8B"/>
<path d="M155.47 226.27C160.938 234.727 155.426 230.394 155.426 230.394C155.046 237.905 147.808 237.32 150.739 225.453" fill="#FFBD8B"/>
<path d="M183.552 329.729C181.718 328.814 179.581 325.605 179.581 325.605V330.493H177.747C177.747 330.493 176.22 317.973 176.22 316.752C176.22 315.531 177.747 315.225 177.747 315.225L177.663 314.545L176.832 307.744L183.858 307.286L182.482 315.531C182.482 315.531 185.689 321.64 187.065 322.554C187.627 322.928 188.186 322.972 188.694 322.975C189.434 322.978 190.064 322.898 190.427 323.621C191.036 324.842 187.217 330.644 183.552 329.729Z" fill="#0F183F"/>
<path d="M188.69 322.975C182.72 325.696 179.443 320.466 177.659 314.542L176.828 307.74L183.854 307.283L182.478 315.528C182.478 315.528 185.685 321.636 187.061 322.551C187.623 322.924 188.182 322.972 188.69 322.975Z" fill="#FFBD8B"/>
<path d="M162.988 313.903C162.978 315.269 156.935 318.7 154.088 316.217C152.873 314.569 152.425 310.741 152.425 310.741L150.204 315.094L148.572 314.263C148.572 314.263 152.907 302.416 153.462 301.329C154.017 300.243 155.518 300.663 155.518 300.663L155.525 300.643L155.753 300.021L158.106 293.586L164.573 296.371L159.6 303.088C159.6 303.088 159.627 305.43 159.808 307.667C159.94 309.271 160.148 310.825 160.485 311.427C160.814 312.012 161.292 312.308 161.743 312.541C162.396 312.877 162.995 313.092 162.988 313.903Z" fill="#FFBD8B"/>
<path d="M165.455 215.008C158.58 225.544 166.525 257.61 166.525 257.61C166.525 257.61 158.583 280.666 156.749 296.243L163.624 299.449C163.624 299.449 184.245 264.177 183.788 258.68C183.33 253.184 174.776 215.008 174.776 215.008H165.455Z" fill="#364085"/>
<path d="M189.205 224.827C191.955 250.479 189.205 271.092 189.205 271.092L184.013 309.419L174.083 308.504L175.762 270.026C175.762 270.026 168.735 245.746 167.665 240.707C166.595 235.669 166.289 223.757 166.289 223.757" fill="#4346A3"/>
<path d="M164.653 174.102C151.93 179.02 150.096 205.741 148.723 226.66C148.723 226.66 153.306 227.273 156.664 226.66L158.498 209.559C158.498 209.559 164.454 197.342 167.51 189.097" fill="#FFA800"/>
<path d="M190.834 225.116C190.885 226.105 190.865 226.946 190.73 227.575C176.829 233.684 162.012 228.49 162.47 223.3C164.762 213.834 165.371 206.044 162.47 201.005C161.195 198.788 159.62 195.63 158.886 191.899C157.947 187.15 158.365 181.475 162.47 175.659C165.219 172.911 168.275 172.759 176.98 175.659C188.459 179.484 192.254 182.074 192.254 188.636C192.254 191.233 191.948 204.365 190.269 209.098C188.893 212.987 190.602 220.582 190.834 225.116Z" fill="#FFA800"/>
<g opacity="0.43">
<path opacity="0.43" d="M190.731 227.575C176.829 233.684 162.013 228.49 162.471 223.3C164.762 213.834 165.371 206.044 162.471 201.005C161.195 198.788 159.62 195.63 158.887 191.899C162.084 198.96 166.636 201.782 174.08 214.901C178.848 223.303 185.111 225.476 190.835 225.113C190.885 226.105 190.865 226.946 190.731 227.575Z" fill="#F8778D"/>
</g>
<path d="M201.425 237.653L201.179 237.788L195.926 240.704C195.926 240.704 188.287 223.145 187.221 220.7C186.151 218.258 185.235 200.544 185.235 200.544C185.235 200.544 184.794 189.989 187.231 185.044C187.978 183.534 188.991 182.545 190.367 182.541C199.594 182.525 196.387 217.491 196.387 217.491L201.425 237.653Z" fill="#FFA800"/>
<g opacity="0.43">
<path opacity="0.43" d="M201.179 237.791L195.926 240.707C195.926 240.707 188.287 223.149 187.221 220.703C186.151 218.261 185.235 200.547 185.235 200.547C185.235 200.547 184.794 189.992 187.231 185.047C183.95 215.906 193.712 232.17 201.179 237.791Z" fill="#FFCD02"/>
</g>
<path d="M162.988 313.903C162.978 315.269 156.935 318.7 154.088 316.217C152.873 314.569 152.425 310.741 152.425 310.741L150.204 315.094L148.572 314.263C148.572 314.263 152.907 302.416 153.462 301.329C154.017 300.243 155.518 300.663 155.518 300.663L155.525 300.643C157.345 302.086 158.129 305.779 159.805 307.67C159.936 309.274 160.145 310.828 160.481 311.431C160.811 312.016 161.289 312.312 161.74 312.544C162.396 312.877 162.995 313.092 162.988 313.903Z" fill="#0F183F"/>
<path d="M181.819 178.659C181.819 178.659 171.939 183.288 171.939 175.881V169.092C171.939 169.092 166.074 164.773 166.999 156.747C167.925 148.725 180.894 142.858 187.069 150.575C190.464 155.513 189.717 169.97 188.613 172.177C187.069 175.262 181.513 172.486 181.513 172.486L181.819 178.659Z" fill="#FFBD8B"/>
<path d="M183.054 162.305C183.054 159.22 187.994 157.367 189.539 154.588C189.896 153.946 190.155 153.186 190.34 152.399C190.72 150.794 190.39 149.173 189.542 147.854C188.987 146.993 188.21 146.263 187.261 145.752C187.19 145.715 187.123 145.674 187.066 145.637C186.14 145.022 173.171 139.155 166.996 151.5C160.821 157.363 166.071 166.93 171.936 169.093C171.936 172.177 180.271 171.252 180.581 169.093C180.894 166.933 183.054 162.305 183.054 162.305Z" fill="#0F183F"/>
<path d="M177.179 155.163C176.509 157.881 173.76 159.542 171.038 158.873C168.319 158.204 166.656 155.455 167.326 152.734C167.996 150.016 170.745 148.355 173.467 149.024C176.186 149.697 177.849 152.445 177.179 155.163Z" fill="#2ED4E2"/>
<path d="M174.171 154.621C171.775 151.22 168.171 148.977 163.742 149.206C157.288 149.542 152.627 155.254 151.84 161.988C151.574 164.265 151.766 166.606 152.479 168.766C156.366 180.509 153.206 184.37 153.206 184.37C162.706 185.386 174.709 180.095 177.044 169.143C178.118 164.114 176.96 158.584 174.171 154.621Z" fill="#0F183F"/>
<path d="M182.062 166.653C183.627 166.653 184.895 165.386 184.895 163.822C184.895 162.258 183.627 160.99 182.062 160.99C180.497 160.99 179.229 162.258 179.229 163.822C179.229 165.386 180.497 166.653 182.062 166.653Z" fill="#0F183F"/>
<path d="M182.062 167.669C183.627 167.669 184.895 166.401 184.895 164.837C184.895 163.273 183.627 162.005 182.062 162.005C180.497 162.005 179.229 163.273 179.229 164.837C179.229 166.401 180.497 167.669 182.062 167.669Z" fill="#FFBD8B"/>
<path d="M233.87 377.182V344.553L304.285 336.161L346.257 327.771V360.4L275.839 400.957L233.87 377.182Z" fill="#364085"/>
<path d="M233.87 344.553L304.285 303.532L346.257 327.771L275.839 368.325L233.87 344.553Z" fill="#4346A3"/>
<path d="M326.387 400.893L318.833 399.881C315.734 399.729 315.03 406.443 315.03 406.443L316.073 407.984C316.073 407.984 324.476 420.78 329.204 419.461C333.929 418.139 332.101 410.638 326.387 400.893Z" fill="#4346A3"/>
<path d="M334.658 392.191L327.887 393.439C325.182 394.176 326.464 400.14 326.464 400.14L327.793 401.172C327.793 401.172 338.598 409.804 342.286 407.345C345.971 404.889 342.296 398.956 334.658 392.191Z" fill="#364085"/>
<path d="M312.061 259.913C317.654 258.134 321.211 256.102 321.211 256.102L339.258 230.696L345.103 234.251C345.103 234.251 331.633 259.658 329.6 262.705C327.568 265.753 311.045 273.883 311.045 273.883" fill="#FFB5C4"/>
<path d="M319.99 271.725C314.707 274.022 300.435 280.649 289.866 274.823C289.633 274.695 289.401 274.56 289.169 274.419C289.169 274.419 295.128 266.615 300.536 263.386C305.944 260.157 313.734 257.032 313.734 257.032C313.734 257.032 315.376 260.527 317.193 264.775C318.149 267.015 319.152 269.468 319.99 271.725Z" fill="#2ED4E2"/>
<path d="M319.99 271.725C314.706 274.022 300.435 280.649 289.865 274.823C298.786 276.511 311.2 268.939 317.19 264.778C318.149 267.015 319.152 269.468 319.99 271.725Z" fill="#2ED4E2"/>
<path d="M306.843 323.307C323.618 332.961 338.36 344.394 339.629 349.221C340.901 354.048 339.373 394.699 339.373 394.699C339.373 394.699 332.764 397.494 327.683 394.699C327.683 394.699 327.427 367.005 326.158 363.194C324.886 359.383 293.88 342.615 288.54 339.819C283.203 337.024 285.235 323.303 285.235 323.303" fill="#FF9900"/>
<path d="M275.832 320.003C273.291 334.232 277.356 340.327 277.612 342.362C277.868 344.394 311.418 365.737 313.958 366.497C316.499 367.258 315.23 403.337 315.23 403.337C315.23 403.337 322.6 404.609 327.94 402.066C329.973 375.643 330.504 360.187 328.957 357.096C326.073 351.33 312.898 339.776 304.455 332.729C300.249 329.217 309.641 320 309.641 320" fill="#FFA800"/>
<path d="M311.315 326.07C311.315 326.07 303.225 332.999 272.663 327.24C272.108 320.321 271.896 313.566 271.724 304.582C271.647 300.465 271.627 296.455 271.677 292.849C271.781 285.223 272.209 279.418 273.094 278.247C276.287 274.039 282.994 268.798 298.467 265.73C307.455 263.948 314.347 287.605 311.315 326.07Z" fill="#2ED4E2"/>
<path d="M297.653 275.566C291.99 278.997 285.125 270.076 285.125 270.076L285.983 259.955L286.639 260.21L296.109 263.901V268.189C296.109 268.189 296.459 268.489 296.92 268.973C298.326 270.45 300.776 273.672 297.653 275.566Z" fill="#FFB5C4"/>
<path d="M296.919 268.973C294.786 273.09 288.577 270.5 286.154 260.813L286.639 260.21L296.108 263.9V268.189C296.108 268.189 296.455 268.485 296.919 268.973Z" fill="#FFBD8B"/>
<path d="M297.781 242.231C297.781 242.231 307.651 261.818 296.391 266.81C284.129 272.246 278.529 252.743 278.529 252.743L288.352 241.481L293.013 238.992L297.781 242.231Z" fill="#FFB5C4"/>
<path d="M297.394 244.246C300.154 245.935 300.144 248.081 300.144 248.081C300.144 248.081 303.212 246.433 299.908 238.938C294.776 227.744 277.194 234.168 275.73 242.79C272.213 250.358 280.162 258.418 280.162 258.418L286.38 257.866C286.38 257.866 287.706 256.305 286.579 253.13C286.579 253.13 286.185 250.617 287.743 248.421C289.294 246.224 292.872 247.092 297.394 244.246Z" fill="#364085"/>
<path d="M283.506 261.271C285.409 260.909 286.658 259.075 286.297 257.173C285.935 255.271 284.1 254.023 282.198 254.384C280.295 254.745 279.046 256.579 279.407 258.481C279.769 260.383 281.604 261.632 283.506 261.271Z" fill="#FFB5C4"/>
<path d="M286.292 235.385C292.241 233.243 294.301 229.371 294.301 229.371C294.301 229.371 295.183 231.305 294.378 233.068C298.564 231.648 299.85 229.64 299.85 229.64C299.85 229.64 306.678 238.181 300.129 245.09" fill="#364085"/>
<path d="M286.221 303.573C286.221 303.573 279.266 305.964 271.731 305.722C271.647 301.269 271.623 296.929 271.677 293.031L282.368 290.656C286.494 299.176 286.221 303.573 286.221 303.573Z" fill="#2ED4E2"/>
<path d="M338.885 231.111C341.065 223.132 342.856 227.538 342.856 227.538C350.878 218.564 358.564 229.318 343.889 235.877" fill="#FFB5C4"/>
<path d="M288.614 337.674C295.267 342.592 290.509 342.666 290.509 342.666C295.98 353.39 283.169 356.663 282.358 340.618" fill="#FFB5C4"/>
<path d="M282.995 294.709L283.085 316.57L289.647 340.51L283.085 341.977L273.683 319.366L270.123 297.007" fill="#FFB5C4"/>
<path d="M275.978 275.166C267.327 282.522 269.107 297.259 269.615 302.594C275.968 302.338 284.102 301.322 284.102 301.322C284.102 301.322 283.593 293.7 282.321 288.11C281.053 282.526 275.978 275.166 275.978 275.166Z" fill="#2ED4E2"/>
<path d="M99.0653 302.409L95.2358 330.782L95.1921 331.115L95.1551 331.388L92.6178 350.171L92.1467 353.656L92.1366 353.723L92.1231 353.814H91.9549C87.2168 357.743 80.3453 360.215 72.6965 360.215C65.0476 360.215 58.1727 357.743 53.4381 353.814H53.3169L53.3035 353.703L53.2732 353.43L53.2361 353.117L50.6989 331.351L50.6551 331.004L50.6417 330.886L47.3203 302.409H99.0653Z" fill="#FFA800"/>
<path d="M73.197 321.646C87.485 321.646 99.0678 313.024 99.0678 302.389C99.0678 291.753 87.485 283.131 73.197 283.131C58.9089 283.131 47.3262 291.753 47.3262 302.389C47.3262 313.024 58.9089 321.646 73.197 321.646Z" fill="#FCDB58"/>
<path d="M73.5738 316.069C84.6058 316.069 93.5489 309.412 93.5489 301.201C93.5489 292.99 84.6058 286.333 73.5738 286.333C62.5418 286.333 53.5986 292.99 53.5986 301.201C53.5986 309.412 62.5418 316.069 73.5738 316.069Z" fill="#AFB1F6"/>
<path d="M72.3995 294.117C82.3164 294.117 90.5406 299.496 92.1054 306.549C93.0375 304.831 93.5558 302.95 93.5558 300.982C93.5558 292.771 84.6147 286.115 73.5806 286.115C62.5499 286.115 53.6055 292.771 53.6055 300.982C53.6055 301.813 53.6997 302.627 53.8747 303.421C56.8359 297.965 64.0137 294.117 72.3995 294.117Z" fill="#4346A3"/>
<path d="M147.071 274.59C141.69 265.071 135.058 258.666 127.934 254.711L123.899 257.829L125.864 253.634C114.325 248.044 101.723 248.558 91.187 252.454L89.4439 256.917L88.2224 253.664C70.4177 261.616 59.9455 279.239 73.8938 291.665L74.799 291.675C83.8747 293.249 90.3659 290.552 96.376 286.656L91.1231 285.112L99.1724 284.752C108.45 278.169 117.354 269.821 134.014 271.566L131.982 268.347L137.083 271.99C140.146 272.505 143.464 273.349 147.071 274.59Z" fill="#3CEBCE"/>
<path d="M72.3698 302.631C72.3631 302.631 72.3564 302.631 72.353 302.631C72.1847 302.621 72.0569 302.476 72.067 302.308C72.9688 287.06 78.0972 275.896 87.3142 269.121C103.063 257.546 125.582 262.959 125.807 263.016C125.972 263.056 126.07 263.221 126.03 263.386C125.989 263.551 125.824 263.648 125.659 263.608C125.437 263.554 103.187 258.209 87.6743 269.615C78.6154 276.276 73.5712 287.289 72.6794 302.345C72.666 302.506 72.5313 302.631 72.3698 302.631Z" fill="#364085"/>
<path d="M57.1963 260.674L55.9748 263.399L55.2816 259.244C47.2928 253.714 37.0663 251.726 27.9503 253.684L30.0501 258L25.3424 254.364C15.91 257.263 8.0929 264.67 5.92578 277.076C9.59037 279.07 13.3593 280.709 17.1484 282.051L25.0092 279.595L20.7524 283.242C29.3771 285.885 37.948 287.093 45.4252 287.551L57.7717 283.194L51.3612 287.773C61.9344 287.917 69.1727 286.699 69.1727 286.699C69.213 275.175 64.3067 266.389 57.1963 260.674Z" fill="#2ED4E2"/>
<path d="M73.2581 300.471C73.0898 300.471 72.9384 300.353 72.9047 300.182C69.7517 284.53 63.183 274.237 53.3839 269.589C37.6992 262.148 18.885 271.896 18.6965 271.997C18.5215 272.091 18.3028 272.024 18.2086 271.846C18.1144 271.671 18.1817 271.452 18.36 271.358C18.5518 271.257 37.6756 261.341 53.6901 268.936C63.708 273.686 70.4112 284.15 73.6114 300.041C73.6518 300.236 73.5239 300.424 73.3287 300.464C73.3086 300.468 73.2816 300.471 73.2581 300.471Z" fill="#364085"/>
<path d="M99.8757 284.154L99.3777 286.303L101.642 284.167C108.82 284.48 115.732 287.881 120.224 293.108L117.058 294.709L121.456 294.672C125.713 300.596 127.002 308.45 122.731 316.725C119.683 316.261 116.728 315.541 113.898 314.639L110.368 309.681L111.243 313.731C104.981 311.434 99.3945 308.316 94.7877 305.241L89.4641 297.158L91.1904 302.718C84.901 298.076 81.1826 294.124 81.1826 294.124C86.3144 287.322 93.1354 284.342 99.8757 284.154Z" fill="#2ED4E2"/>
<path d="M72.6181 300.411C72.7157 300.485 72.857 300.485 72.9546 300.397C81.8115 292.59 90.2848 289.465 98.1322 291.106C110.697 293.734 117.414 307.885 117.481 308.026C117.542 308.161 117.7 308.218 117.835 308.154C117.969 308.093 118.027 307.935 117.963 307.801C117.895 307.656 111.071 293.269 98.2432 290.585C90.2209 288.907 81.5928 292.072 72.6013 299.997C72.4902 300.094 72.4801 300.263 72.5777 300.374C72.5912 300.387 72.6046 300.401 72.6181 300.411Z" fill="#364085"/>
<path d="M42.9447 294.154L44.2032 295.967L41.3059 294.82C34.754 297.763 29.5886 303.478 27.3508 309.997L30.8842 310.317L26.7855 311.908C25.0188 318.985 26.7283 326.759 33.758 332.868C36.4198 331.31 38.8965 329.548 41.1948 327.664L42.6418 321.75L43.3283 325.837C48.2952 321.387 52.3333 316.426 55.4763 311.864L57.4314 302.385L57.8823 308.191C62.0079 301.554 64.0034 296.509 64.0034 296.509C56.7146 292.085 49.2778 291.836 42.9447 294.154Z" fill="#3CEBCE"/>
<path d="M74.284 299.18C74.22 299.287 74.0888 299.334 73.9677 299.294C62.8494 295.315 53.8209 295.54 47.1378 299.97C36.4368 307.057 35.4273 322.685 35.4206 322.844C35.4138 322.992 35.286 323.103 35.1413 323.093C34.9932 323.086 34.8821 322.958 34.8922 322.813C34.9023 322.655 35.922 306.765 46.845 299.526C53.6795 294.998 62.8662 294.753 74.1527 298.793C74.2907 298.843 74.3647 298.995 74.3143 299.132C74.3008 299.149 74.2941 299.166 74.284 299.18Z" fill="#364085"/>
<path d="M67.5005 315.948L63.8057 318.41C62.8668 323.076 62.9106 328.501 65.0844 334.331L69.3009 331.424L66.2588 337.099C68.6144 341.993 72.5347 347.123 78.6625 352.3C81.432 348.149 84.7163 343.07 86.9474 337.594L84.4236 333.584L88.0444 334.597C90.4 327.264 90.4707 319.399 84.7298 312.174L79.7428 310.549C79.7428 310.549 81.2099 310.33 82.8824 310.088C80.2172 307.347 76.6368 304.72 71.929 302.271C71.929 302.271 66.7232 307.693 64.3609 316.096L67.5005 315.948Z" fill="#3CEBCE"/>
<path d="M78.3023 333.944C78.2888 333.944 78.2754 333.944 78.2653 333.941C78.0667 333.92 77.9254 333.742 77.9456 333.544C79.1436 322.161 74.1969 309.207 71.2423 301.467C69.3141 296.418 68.7387 294.796 69.4857 294.289C70.0107 293.932 70.8385 294.396 72.6523 296.065C72.8004 296.199 72.8071 296.428 72.6725 296.573C72.5379 296.721 72.3091 296.727 72.1644 296.593C70.5828 295.136 70.0511 294.924 69.8996 294.901C69.728 295.483 70.8385 298.392 71.9153 301.208C74.8935 309.008 79.8805 322.063 78.6624 333.618C78.6388 333.806 78.484 333.944 78.3023 333.944Z" fill="#364085"/>
</svg>
