<svg width="36" height="36" viewBox="0 0 36 36" fill="none" xmlns="http://www.w3.org/2000/svg">
<g clip-path="url(#clip0)">
<path d="M20.7132 18.0032L2.63488 35.4114C1.78829 34.8328 1.28566 33.8705 1.29455 32.8451V3.16123C1.28566 2.13589 1.78829 1.17353 2.63488 0.594971L20.7132 18.0032Z" fill="#2196F3"/>
<path d="M27.0392 11.9226L20.7134 18.0032L2.63501 0.594958C2.70313 0.542166 2.77408 0.493052 2.84748 0.447846C3.80294 -0.131253 4.99638 -0.149948 5.96954 0.398809L27.0392 11.9226Z" fill="#4CAF50"/>
<path d="M34.7053 18.0032C34.7171 19.1607 34.0881 20.2299 33.0708 20.782L27.0392 24.0839L20.7134 18.0032L27.0392 11.9226L33.0708 15.2244C34.0881 15.7766 34.7171 16.8457 34.7053 18.0032Z" fill="#FFC107"/>
<path d="M27.0392 24.0838L5.96954 35.6075C4.99424 36.1478 3.80531 36.1291 2.84748 35.5585C2.77408 35.5133 2.70313 35.4642 2.63501 35.4114L20.7134 18.0032L27.0392 24.0838Z" fill="#F44336"/>
</g>
<defs>
<clipPath id="clip0">
<rect width="36" height="36" fill="white"/>
</clipPath>
</defs>
</svg>
