<svg width="16" height="16" viewBox="0 0 16 16" fill="none" xmlns="http://www.w3.org/2000/svg">
<path d="M9.03332 6.66669V6.96669H9.33332H14.6667C15.2373 6.96669 15.7 7.42928 15.7 7.99996C15.7 8.57068 15.2374 9.03331 14.6667 9.03331H9.33332H9.03332V9.33331V14.6666C9.03332 15.2373 8.57073 15.7 8.00005 15.7C7.42933 15.7 6.96669 15.2374 6.96669 14.6666V9.33331V9.03331H6.66669H1.33335C0.762613 9.03331 0.3 8.57073 0.3 8.00004C0.3 7.42932 0.762636 6.96669 1.33335 6.96669H6.66662H6.96662V6.66669V1.33335C6.96662 0.762636 7.42925 0.3 7.99997 0.3C8.57069 0.3 9.03332 0.762636 9.03332 1.33335V6.66669Z" fill="#0038C7" stroke="white" stroke-width="0.6"/>
</svg>
