<svg width="134" height="132" viewBox="0 0 134 132" fill="none" xmlns="http://www.w3.org/2000/svg">
<mask id="mask0" mask-type="alpha" maskUnits="userSpaceOnUse" x="2" y="0" width="131" height="131">
<path d="M66.5896 84.09C70.4923 84.09 74.1605 82.5699 76.9201 79.8103L93.578 63.1525H103.18C106.643 63.1525 109.461 60.3343 109.461 56.8712V52.6837C109.461 50.7575 108.571 49.0511 107.2 47.8974C108.592 46.4025 109.461 44.4134 109.461 42.215V38.4651C109.461 37.0413 110.135 35.7578 111.266 35.0313C116.691 31.5431 119.93 25.6178 119.93 19.1837C119.93 13.8216 117.635 8.69822 113.636 5.12628C109.639 1.55434 104.262 -0.141597 98.8982 0.461403C90.4164 1.42034 83.4777 8.25643 82.3995 16.7152C81.4635 24.0642 84.7403 31.093 90.9503 35.0606C92.0349 35.7537 92.7091 37.0916 92.7091 38.5509V42.6484C91.4968 43.042 90.3745 43.6827 89.447 44.6123L84.3362 49.7232L67.5317 66.5255C65.193 64.4506 60.5072 60.6797 55.6853 59.0738C53.3675 58.2992 50.809 57.715 48.085 57.3318C46.0729 57.0471 44.5549 55.2695 44.5549 53.1967V50.4162C47.7563 48.5569 50.2897 45.6759 51.6967 42.2129H52.9299C57.5487 42.2129 61.3049 38.4567 61.3049 33.8379C61.3049 32.0477 60.7291 30.3937 59.7681 29.0306L59.789 28.9867C60.7815 27.006 61.3049 24.7887 61.3049 22.5714C61.3049 17.1025 58.2648 12.1843 53.3717 9.73462L52.9069 9.50222C52.7792 4.43115 48.6356 0.339966 43.5353 0.339966H29.8987C22.1183 0.339966 15.7324 6.43487 15.2696 14.1022L14.8593 14.5126C12.4075 16.9664 11.0549 20.2285 11.0549 23.6957C11.0549 25.0944 11.279 26.4762 11.7207 27.8037L12.2923 29.5185C11.5239 30.7831 11.0549 32.2529 11.0549 33.84C11.0549 38.4588 14.8111 42.215 19.4299 42.215H20.6631C22.0701 45.678 24.6036 48.559 27.8049 50.4183V53.4207C27.8049 55.5291 26.2283 57.313 24.1367 57.5747L18.2135 58.3159C14.3212 58.8017 10.6487 60.6002 7.87452 63.3744C4.52453 66.7223 2.67993 71.1736 2.67993 75.9118V109.215C2.67993 112.678 5.49812 115.496 8.96118 115.496H13.1487C13.8857 115.496 14.585 115.345 15.2424 115.111V130.152H57.1174V80.9556L59.5964 82.3082C61.7362 83.4744 64.1524 84.09 66.5896 84.09ZM105.274 42.215C105.274 44.1161 103.99 45.7094 102.25 46.2182C101.067 44.225 99.1306 42.8619 96.8987 42.4034V42.215H105.274ZM86.5555 17.2449C87.3931 10.6768 92.7824 5.36915 99.3693 4.62587C103.611 4.13175 107.692 5.43197 110.845 8.24806C113.956 11.0286 115.742 15.0151 115.742 19.1837C115.742 24.1878 113.222 28.7961 109.001 31.5117C106.787 32.9334 105.435 35.3496 105.299 38.0275H96.8652C96.7102 35.3244 95.3765 32.9208 93.2032 31.5306C88.3729 28.4444 85.8248 22.9713 86.5555 17.2449ZM92.4097 47.5729C93.153 46.8296 94.181 46.4025 95.232 46.4025C96.7542 46.4025 98.1214 47.2463 98.8019 48.6093L99.7922 50.59H103.18C104.334 50.59 105.274 51.528 105.274 52.6837V56.8712C105.274 58.027 104.334 58.965 103.18 58.965H93.578L87.2967 52.6837L92.4097 47.5729ZM44.0085 68.8286L38.9876 64.8107L42.8129 59.0697C42.8548 59.1115 42.8967 59.1513 42.9386 59.1911L44.0085 68.8286ZM40.2188 87.5593L36.1799 91.5982L32.1411 87.5593L35.2943 68.636L36.1799 67.9283L37.0656 68.636L40.2188 87.5593ZM29.3941 59.4319C29.4736 59.3544 29.5574 59.2832 29.6349 59.2037L33.3722 64.8107L28.3514 68.8286L29.3941 59.4319ZM52.9299 38.0275H52.7855C52.8713 37.3407 52.9299 36.6435 52.9299 35.9337V29.6525C55.2393 29.6525 57.1174 31.5306 57.1174 33.84C57.1174 36.1494 55.2393 38.0275 52.9299 38.0275ZM19.4299 38.0275C17.1205 38.0275 15.2424 36.1494 15.2424 33.84C15.2424 31.5306 17.1205 29.6525 19.4299 29.6525V35.9337C19.4299 36.6435 19.4886 37.3407 19.5744 38.0275H19.4299ZM19.4634 25.465H19.4299C18.0732 25.465 16.8086 25.8209 15.6737 26.3946C15.3911 25.5215 15.2424 24.6149 15.2424 23.6957C15.2424 21.3466 16.1595 19.1356 17.8198 17.471L19.4299 15.863V14.9962C19.4299 9.22375 24.1262 4.52747 29.8987 4.52747H43.5353C46.4058 4.52747 48.7424 6.86409 48.7424 9.73462C48.7424 11.9791 47.3103 13.964 45.1831 14.6717L43.8933 15.1009L45.2166 19.0748L46.5063 18.6435C48.9853 17.8165 50.9262 16.0263 52.0024 13.7756C55.1619 15.5887 57.1174 18.8948 57.1174 22.5714C57.1174 23.8277 56.8704 25.0776 56.416 26.248C55.3524 25.7581 54.1778 25.465 52.9299 25.465V21.2775H43.4494C37.6456 21.2775 31.8354 19.9061 26.6471 17.3098L25.7112 16.8429L24.7753 17.3119C21.6284 18.8864 19.6393 21.9831 19.4634 25.465ZM23.6174 35.9337V25.9591C23.6174 24.1962 24.4445 22.5861 25.8242 21.5601C31.3203 24.1187 37.388 25.465 43.4494 25.465H48.7424V35.9337C48.7424 42.8619 43.1081 48.4962 36.1799 48.4962C29.2517 48.4962 23.6174 42.8619 23.6174 35.9337ZM36.1799 52.6837C37.6288 52.6837 39.0253 52.4806 40.3674 52.1331V53.1967C40.3674 53.7808 40.4428 54.3482 40.558 54.9031L36.1799 61.4712L31.848 54.9722C31.9422 54.4676 31.9924 53.9483 31.9924 53.4207V52.1331C33.3345 52.4806 34.7311 52.6837 36.1799 52.6837ZM10.8351 66.335C12.954 64.214 15.7596 62.8426 18.7327 62.4699L24.6559 61.7287C24.7522 61.7162 24.8381 61.6827 24.9323 61.668L23.071 78.4138L30.397 72.5534L27.6563 88.9956L36.1799 97.5193L44.7036 88.9956L41.9629 72.5534L49.2889 78.4138L47.4045 61.4544C47.438 61.4607 47.4694 61.4733 47.505 61.4775C49.9777 61.825 52.285 62.3506 54.362 63.0436C58.6333 64.4673 63.0281 68.1084 65.015 69.8943L63.6206 72.6853L67.3663 74.5592L69.3072 70.6753L84.3362 55.6443L89.7506 61.0587L73.9595 76.8498C71.9914 78.8179 69.3742 79.9025 66.5896 79.9025C64.8517 79.9025 63.1265 79.4628 61.6001 78.6316L57.153 76.207C57.243 75.001 57.733 73.8746 58.5977 73.0098L55.6351 70.0493C53.891 71.7934 52.9299 74.1133 52.9299 76.5818V100.84H23.3515C23.0647 99.8433 22.5559 98.9116 21.8168 98.1725L19.4299 95.7857V76.5818C19.4299 74.1133 18.4689 71.7934 16.7248 70.0472L13.7621 73.0078C14.7169 73.9625 15.2424 75.2334 15.2424 76.5818V94.5587H6.86743V75.9118C6.86743 72.3461 8.31421 68.8558 10.8351 66.335ZM13.1487 111.309H8.96118C7.80752 111.309 6.86743 110.371 6.86743 109.215V98.7462H16.4694L18.8562 101.133C19.2206 101.497 19.4299 102.004 19.4299 102.521C19.4299 103.269 19.0133 103.943 18.3454 104.276L15.2424 105.827V107.121V109.215C15.2424 110.371 14.3023 111.309 13.1487 111.309ZM38.2737 125.965V120.023C38.2737 116.966 40.223 114.263 43.1228 113.294L41.7975 109.324C39.4692 110.101 37.5325 111.581 36.1778 113.48C34.8253 111.581 32.8865 110.099 30.5582 109.324L29.2329 113.294C32.1369 114.263 34.0862 116.966 34.0862 120.023V125.965H19.4299V109.215V108.415L20.2172 108.022C21.5237 107.368 22.5203 106.305 23.0877 105.027H52.9299V125.965H38.2737Z" fill="url(#paint0_linear)"/>
<path d="M110.942 14.3828L107.981 11.4222L96.8987 22.5045L94.1915 19.7972L91.231 22.7578L96.8987 28.4256L110.942 14.3828Z" fill="url(#paint1_linear)"/>
<path d="M96.8987 105.027V101.707C96.8987 98.92 94.6311 96.6525 91.8444 96.6525C90.5148 96.6525 89.2125 97.1927 88.2703 98.1327L81.3756 105.027H71.7737C68.3106 105.027 65.4924 107.846 65.4924 111.309V119.684C65.4924 123.147 68.3106 125.965 71.7737 125.965H96.8987C100.362 125.965 103.18 123.147 103.18 119.684V111.309C103.18 107.846 100.362 105.027 96.8987 105.027ZM98.9924 119.684C98.9924 120.839 98.0523 121.777 96.8987 121.777H71.7737C70.62 121.777 69.6799 120.839 69.6799 119.684V111.309C69.6799 110.153 70.62 109.215 71.7737 109.215H83.1092L91.2288 101.095C91.7334 100.591 92.7112 101.001 92.7112 101.707V109.215H96.8987C98.0523 109.215 98.9924 110.153 98.9924 111.309V119.684Z" fill="url(#paint2_linear)"/>
<path d="M73.8674 113.402H94.8049V117.59H73.8674V113.402Z" fill="url(#paint3_linear)"/>
<path d="M126.211 67.34H101.086C97.6231 67.34 94.8049 70.1582 94.8049 73.6212V81.9962C94.8049 85.4593 97.6231 88.2775 101.086 88.2775V91.5982C101.086 94.3849 103.354 96.6525 106.14 96.6525C107.47 96.6525 108.772 96.1123 109.715 95.1722L116.609 88.2775H126.211C129.674 88.2775 132.492 85.4593 132.492 81.9962V73.6212C132.492 70.1582 129.674 67.34 126.211 67.34ZM128.305 81.9962C128.305 83.152 127.365 84.09 126.211 84.09H114.876L106.756 92.2095C106.251 92.7141 105.274 92.3037 105.274 91.5982V84.09H101.086C99.9325 84.09 98.9924 83.152 98.9924 81.9962V73.6212C98.9924 72.4655 99.9325 71.5275 101.086 71.5275H126.211C127.365 71.5275 128.305 72.4655 128.305 73.6212V81.9962Z" fill="url(#paint4_linear)"/>
<path d="M103.18 75.715H124.117V79.9025H103.18V75.715Z" fill="url(#paint5_linear)"/>
</mask>
<g mask="url(#mask0)">
<rect x="3" width="129" height="130" fill="url(#paint6_linear)"/>
</g>
<defs>
<linearGradient id="paint0_linear" x1="2.67993" y1="0.339966" x2="120.465" y2="0.82769" gradientUnits="userSpaceOnUse">
<stop stop-color="#ADB2BE"/>
<stop offset="0.994284" stop-color="#3FA3FF"/>
</linearGradient>
<linearGradient id="paint1_linear" x1="91.231" y1="11.4222" x2="111.031" y2="11.5275" gradientUnits="userSpaceOnUse">
<stop stop-color="#ADB2BE"/>
<stop offset="0.994284" stop-color="#3FA3FF"/>
</linearGradient>
<linearGradient id="paint2_linear" x1="65.4924" y1="96.6525" x2="103.351" y2="96.8756" gradientUnits="userSpaceOnUse">
<stop stop-color="#ADB2BE"/>
<stop offset="0.994284" stop-color="#3FA3FF"/>
</linearGradient>
<linearGradient id="paint3_linear" x1="73.8674" y1="113.402" x2="94.8899" y2="113.884" gradientUnits="userSpaceOnUse">
<stop stop-color="#ADB2BE"/>
<stop offset="0.994284" stop-color="#3FA3FF"/>
</linearGradient>
<linearGradient id="paint4_linear" x1="94.8049" y1="67.34" x2="132.664" y2="67.5631" gradientUnits="userSpaceOnUse">
<stop stop-color="#ADB2BE"/>
<stop offset="0.994284" stop-color="#3FA3FF"/>
</linearGradient>
<linearGradient id="paint5_linear" x1="103.18" y1="75.715" x2="124.202" y2="76.1968" gradientUnits="userSpaceOnUse">
<stop stop-color="#ADB2BE"/>
<stop offset="0.994284" stop-color="#3FA3FF"/>
</linearGradient>
<linearGradient id="paint6_linear" x1="3" y1="0" x2="132.589" y2="0.589521" gradientUnits="userSpaceOnUse">
<stop stop-color="#638FFF"/>
<stop offset="0.994284" stop-color="#3FA3FF"/>
</linearGradient>
</defs>
</svg>
