<svg width="130" height="130" viewBox="0 0 130 130" fill="none" xmlns="http://www.w3.org/2000/svg">
<mask id="mask0" mask-type="alpha" maskUnits="userSpaceOnUse" x="6" y="0" width="118" height="130">
<path d="M89.1808 0C76.352 0 64.6619 7.05503 58.6728 18.4117C58.182 19.342 58.5385 20.4938 59.4688 20.9843C60.3991 21.4756 61.5508 21.1186 62.0413 20.1883C67.3696 10.0849 77.7688 3.80859 89.1808 3.80859C106.087 3.80859 119.842 17.5632 119.842 34.4697C119.842 51.3763 106.087 65.1309 89.1808 65.1309C83.4205 65.1309 77.8076 63.5252 72.9491 60.487C72.0569 59.9296 70.8823 60.2003 70.3248 61.092C69.7672 61.9837 70.0381 63.1588 70.9298 63.7164C76.3944 67.1335 82.7055 68.9395 89.1806 68.9395C108.187 68.9395 123.65 53.4764 123.65 34.4697C123.651 15.4631 108.187 0 89.1808 0Z" fill="url(#paint0_linear)"/>
<path d="M70.1536 88.2746L54.8916 81.2762C54.1243 80.9243 53.6282 80.1514 53.6282 79.3069V74.2529C58.2124 71.2571 61.5627 66.4687 62.6182 60.7611C62.6197 60.7594 62.6215 60.7573 62.6233 60.7555C63.1661 60.788 63.7151 60.7395 64.2546 60.6116C66.7711 60.0159 68.5974 57.6025 68.5974 54.8731V53.4149C68.5974 51.3968 67.5844 49.5834 66.02 48.5373C66.4872 46.7095 66.7262 44.839 66.7262 42.9557C66.7262 34.686 62.246 27.4035 55.4972 23.2344C55.4571 16.0275 49.5835 10.1768 42.3674 10.1768C35.1517 10.1768 29.2781 16.0278 29.238 23.2344C22.4889 27.4035 18.0087 34.686 18.0087 42.956C18.0087 44.8339 18.2464 46.6996 18.7108 48.5226C17.1472 49.5634 16.1375 51.3844 16.1375 53.4372V54.8733C16.1375 57.6028 17.9638 60.0162 20.4803 60.6118C21.0201 60.7395 21.5688 60.7883 22.1119 60.7555C22.1136 60.7573 22.1154 60.7594 22.1169 60.7611C23.1724 66.4687 26.523 71.2573 31.1072 74.2529V79.3069C31.1072 80.1514 30.6114 80.9243 29.8438 81.2762L14.5815 88.2746C9.32085 90.687 6.02312 96.1889 6.37529 101.965L7.97616 128.211C8.03786 129.222 8.87626 130 9.87512 130C9.91397 130 9.95333 129.998 9.99268 129.996C11.0423 129.932 11.8416 129.029 11.7774 127.979L10.1765 101.734C10.0305 99.3373 10.7453 97.0062 12.0938 95.1164L17.2851 101.346C18.9581 103.354 19.8795 105.898 19.8795 108.512V128.095C19.8795 129.147 20.7321 130 21.7838 130C22.8355 130 23.6881 129.147 23.6881 128.095V108.512C23.6881 105.01 22.4531 101.599 20.2109 98.9077L14.8451 92.4689C15.2643 92.1947 15.7058 91.9489 16.1687 91.7366L25.2923 87.553C27.8925 94.6456 34.6906 99.4698 42.3669 99.4698C50.0679 99.4698 56.8431 94.6527 59.4411 87.5528L68.5652 91.7366C69.0281 91.9489 69.4699 92.1947 69.8888 92.4689L64.523 98.9077C62.2805 101.599 61.0458 105.009 61.0458 108.512V128.095C61.0458 129.147 61.8984 130 62.9501 130C64.0017 130 64.8544 129.147 64.8544 128.095V108.512C64.8544 105.899 65.7758 103.354 67.449 101.346L72.6404 95.1166C73.9889 97.0067 74.7036 99.3375 74.5576 101.734L72.9567 127.98C72.8928 129.03 73.6918 129.932 74.7414 129.996C74.7808 129.999 74.8202 130 74.859 130C75.8579 130 76.6963 129.222 76.758 128.212L78.3588 101.966C78.7123 96.1889 75.4143 90.687 70.1536 88.2746ZM42.368 13.9853C46.792 13.9853 50.5036 17.0838 51.4532 21.2239C48.6442 20.1342 45.5781 19.5327 42.368 19.5327C39.1581 19.5327 36.0919 20.1342 33.2829 21.2237C34.2326 17.0838 37.9439 13.9853 42.368 13.9853ZM25.8587 60.0482C25.5147 58.1748 23.7785 56.8131 21.9103 56.952C21.7307 56.965 21.5446 56.9495 21.3583 56.9053C20.5536 56.7149 19.9466 55.8412 19.9466 54.8731V53.437C19.9466 52.464 20.6014 51.5868 21.4372 51.4402C22.1398 51.3166 22.8147 51.5751 23.241 52.1314C23.5957 52.594 24.0687 52.9248 24.61 53.0886C25.4007 53.327 26.2731 53.1871 26.9434 52.7136C28.491 51.6213 29.8029 50.2355 30.8424 48.5952C31.4053 47.7068 31.1418 46.5305 30.2533 45.9673C29.3649 45.4044 28.1886 45.6682 27.6254 46.5564C27.0328 47.4915 26.3239 48.3131 25.5106 49.0081C24.6418 48.2431 23.5617 47.7688 22.4163 47.6388C22.0205 46.1047 21.8173 44.535 21.8173 42.9557C21.8173 32.1404 31.0361 23.3413 42.3674 23.3413C53.6988 23.3413 62.9176 32.1404 62.9176 42.9557C62.9176 44.533 62.7152 46.1001 62.3204 47.6322C61.7608 47.672 61.1885 47.765 60.6644 47.9044L59.1237 46.6374C58.3869 46.0318 57.4629 45.7286 56.5214 45.7845C54.8058 45.8856 50.2629 46.0046 45.1391 44.9235C38.8069 43.5877 33.9563 40.9476 30.7218 37.0765C30.0474 36.2694 28.8465 36.162 28.0395 36.8364C27.2324 37.5107 27.125 38.7117 27.7993 39.5186C31.595 44.0612 37.1644 47.1335 44.353 48.6501C49.8985 49.8198 54.8241 49.6977 56.7157 49.588L59.0902 51.5405C59.7051 52.0461 60.5689 52.1164 61.2568 51.716C61.6011 51.5233 62.7739 51.3397 63.2931 51.4435C64.1457 51.6132 64.7888 52.4604 64.7888 53.4146V54.8728C64.7888 55.8409 64.182 56.7146 63.3771 56.9051C63.1908 56.9492 63.0054 56.9645 62.8256 56.9518C60.9566 56.8157 59.2209 58.1741 58.8767 60.0477C57.4134 68.0147 50.4703 73.7972 42.3674 73.7972C34.2651 73.7974 27.322 68.015 25.8587 60.0482ZM42.368 95.661C36.1973 95.661 30.7457 91.7191 28.7693 85.959L31.432 84.738C33.5488 83.7675 34.9166 81.6355 34.9166 79.3067V76.209C37.2383 77.1106 39.753 77.606 42.3682 77.606C44.9834 77.606 47.4981 77.1106 49.8201 76.209V79.3067C49.8201 81.6355 51.1879 83.7673 53.3047 84.738L55.9692 85.9597C53.9938 91.7265 48.5582 95.661 42.368 95.661Z" fill="url(#paint1_linear)"/>
<path d="M102.983 27.3827C101.87 22.0441 97.5359 17.7097 92.1973 16.5971C87.9395 15.7099 83.5957 16.7463 80.2807 19.4416C76.9657 22.1368 75.0645 26.1307 75.0645 30.3991C75.0645 31.4508 75.9171 32.3034 76.9687 32.3034C78.0204 32.3034 78.873 31.4508 78.873 30.3991C78.873 27.2822 80.2619 24.3653 82.6834 22.3965C85.1049 20.4277 88.2894 19.6729 91.4201 20.3257C95.2977 21.1338 98.4461 24.2823 99.2543 28.1599C100.376 33.5425 97.2998 38.7567 92.0987 40.2885C89.2144 41.1381 87.2763 43.6403 87.2763 46.5148V46.6818C87.2763 47.7335 88.1289 48.5861 89.1806 48.5861C90.2323 48.5861 91.0849 47.7335 91.0849 46.6818V46.5148C91.0851 45.344 91.9251 44.3101 93.1751 43.9417C100.297 41.8442 104.513 34.7254 102.983 27.3827Z" fill="url(#paint2_linear)"/>
<path d="M89.2011 52.9188H89.1808C88.1291 52.9188 87.2866 53.7714 87.2866 54.8231C87.2866 55.8748 88.1494 56.7274 89.2011 56.7274C90.2527 56.7274 91.1054 55.8748 91.1054 54.8231C91.1054 53.7714 90.2527 52.9188 89.2011 52.9188Z" fill="url(#paint3_linear)"/>
</mask>
<g mask="url(#mask0)">
<rect x="4" width="120" height="130" fill="url(#paint4_linear)"/>
</g>
<defs>
<linearGradient id="paint0_linear" x1="58.4524" y1="0" x2="123.948" y2="0.283964" gradientUnits="userSpaceOnUse">
<stop stop-color="#638FFF"/>
<stop offset="0.994284" stop-color="#3FA3FF"/>
</linearGradient>
<linearGradient id="paint1_linear" x1="6.34961" y1="10.1768" x2="78.7144" y2="10.3762" gradientUnits="userSpaceOnUse">
<stop stop-color="#638FFF"/>
<stop offset="0.994284" stop-color="#3FA3FF"/>
</linearGradient>
<linearGradient id="paint2_linear" x1="75.0645" y1="16.2869" x2="103.425" y2="16.4005" gradientUnits="userSpaceOnUse">
<stop stop-color="#638FFF"/>
<stop offset="0.994284" stop-color="#3FA3FF"/>
</linearGradient>
<linearGradient id="paint3_linear" x1="87.2866" y1="52.9188" x2="91.1228" y2="52.9365" gradientUnits="userSpaceOnUse">
<stop stop-color="#638FFF"/>
<stop offset="0.994284" stop-color="#3FA3FF"/>
</linearGradient>
<linearGradient id="paint4_linear" x1="4" y1="0" x2="124.548" y2="0.510133" gradientUnits="userSpaceOnUse">
<stop stop-color="#638FFF"/>
<stop offset="0.994284" stop-color="#3FA3FF"/>
</linearGradient>
</defs>
</svg>
