<svg width="202" height="202" viewBox="0 0 202 202" fill="none" xmlns="http://www.w3.org/2000/svg">
<mask id="mask0" mask-type="alpha" maskUnits="userSpaceOnUse" x="0" y="0" width="202" height="202">
<path d="M135.804 109.189L118.609 101.547C117.394 101.007 116.61 99.7992 116.61 98.4704V93.7487C122.386 89.1465 126.098 82.0595 126.098 74.1175V67.4709C128.001 66.4194 129.261 64.3876 129.261 62.1119V61.4669C129.261 47.6283 118.002 36.3695 104.164 36.3695H97.8385C83.9999 36.3695 72.7411 47.6283 72.7411 61.4669V67.3198C72.7411 69.32 73.602 71.1321 75.1024 72.2916C75.3568 72.4881 75.6247 72.6609 75.9037 72.8105V74.1171C75.9037 82.0591 79.6158 89.1461 85.3914 93.7479V98.47C85.3914 99.7988 84.6067 101.006 83.3923 101.546L66.1978 109.188C60.5666 111.691 56.9279 117.29 56.9279 123.452V162.67C56.9279 164.304 58.2527 165.629 59.8868 165.629C61.521 165.629 62.8458 164.304 62.8458 162.67V123.453C62.8458 123.11 62.8703 122.771 62.9058 122.435L70.8288 130.358C72.0617 131.591 72.7411 133.23 72.7411 134.975V162.671C72.7411 164.305 74.0659 165.63 75.7001 165.63C77.3342 165.63 78.6591 164.305 78.6591 162.671V134.975C78.6591 131.65 77.3646 128.524 75.0136 126.173L65.5681 116.727C66.4191 115.844 67.4402 115.113 68.6017 114.596L85.5062 107.083L98.0424 119.619V162.67C98.0424 164.304 99.3673 165.629 101.001 165.629C102.636 165.629 103.96 164.304 103.96 162.67V119.62L116.497 107.083L133.401 114.596C134.562 115.113 135.583 115.844 136.434 116.728L126.989 126.173C124.638 128.524 123.343 131.65 123.343 134.975V162.671C123.343 164.305 124.668 165.63 126.302 165.63C127.937 165.63 129.261 164.305 129.261 162.671V134.975C129.261 133.231 129.94 131.591 131.174 130.358L139.096 122.435C139.132 122.771 139.156 123.109 139.156 123.452V162.67C139.156 164.304 140.481 165.629 142.115 165.629C143.749 165.629 145.074 164.304 145.074 162.67V123.453C145.073 117.29 141.435 111.691 135.804 109.189ZM101 114.209L90.0003 103.209C90.8367 101.802 91.309 100.174 91.309 98.4704V97.2663C94.2928 98.5201 97.567 99.2149 101.001 99.2149C104.434 99.2149 107.708 98.5205 110.692 97.2667V98.4704C110.692 100.174 111.164 101.802 112.001 103.21L101 114.209ZM101.001 93.2965C90.4252 93.2969 81.8213 84.693 81.8213 74.1175V72.7868C83.6677 72.0549 85.4699 70.8903 87.1952 69.2983C88.3957 68.1901 88.4711 66.318 87.3625 65.1171C86.2542 63.9165 84.3826 63.8412 83.1812 64.9494C81.7013 66.3157 80.2226 67.1982 78.7873 67.573C78.7526 67.5821 78.7269 67.5861 78.7088 67.5876C78.6875 67.5462 78.6587 67.4594 78.6587 67.3201V61.4673C78.6587 50.8918 87.2626 42.2879 97.8381 42.2879H104.163C114.739 42.2879 123.343 50.8918 123.343 61.4673V62.1123C123.343 62.2082 123.285 62.2914 123.209 62.3064C105.49 65.8059 96.6032 59.2105 93.6048 56.2121C92.4492 55.0565 90.5755 55.0565 89.4203 56.2121C88.2648 57.3677 88.2648 59.2413 89.4203 60.3965C98.609 69.5852 112.017 69.7509 120.18 68.7701V74.1171C120.18 84.6926 111.576 93.2965 101.001 93.2965Z" fill="black"/>
<path d="M53.3573 93.0941V86.7678C53.3573 79.0484 49.3457 72.253 43.3011 68.3424C43.6743 67.145 43.8692 65.8908 43.8692 64.6294C43.8692 57.7662 38.2858 52.1827 31.4225 52.1827C24.5592 52.1827 18.9758 57.7666 18.9758 64.6294C18.9758 65.9065 19.1691 67.1485 19.5431 68.3432C13.4989 72.2534 9.48771 79.0488 9.48771 86.7678V93.0929C9.48771 100.568 13.2488 107.178 18.9754 111.14V117.647C18.9754 118.93 18.2625 120.084 17.1148 120.658L6.88024 125.775C2.63626 127.898 0 132.163 0 136.908V162.671C0 164.305 1.32484 165.63 2.95899 165.63C4.59314 165.63 5.91798 164.305 5.91798 162.671V138.188L10.7384 143.009C11.9713 144.242 12.6507 145.881 12.6507 147.626V162.671C12.6507 164.305 13.9755 165.63 15.6097 165.63C17.2438 165.63 18.5686 164.305 18.5686 162.671V147.626C18.5686 144.301 17.2738 141.175 14.9232 138.824L8.21416 132.115C8.1818 132.083 8.14709 132.055 8.11395 132.025C8.53491 131.653 9.00717 131.329 9.52716 131.069L19.7617 125.952C20.286 125.69 20.7741 125.38 21.229 125.036L28.4635 132.271V162.671C28.4635 164.306 29.7883 165.63 31.4225 165.63C33.0567 165.63 34.3815 164.306 34.3815 162.671V132.27L41.6164 125.035C42.0717 125.38 42.5594 125.69 43.0837 125.952L45.9058 127.363C46.3307 127.575 46.782 127.676 47.2271 127.676C48.3124 127.676 49.3575 127.076 49.8759 126.04C50.607 124.578 50.0144 122.801 48.5527 122.07L45.7306 120.659C44.5825 120.085 43.8696 118.931 43.8696 117.648V111.141C49.5962 107.179 53.3573 100.569 53.3573 93.0941ZM31.4225 58.1007C35.0226 58.1007 37.9512 61.0297 37.9512 64.6294C37.9512 65.0259 37.9157 65.4146 37.8478 65.7953C35.8144 65.1711 33.6575 64.833 31.4225 64.833C29.1906 64.833 27.0365 65.1699 25.0062 65.7925C24.938 65.4118 24.8938 65.0252 24.8938 64.6294C24.8938 61.0293 27.8224 58.1007 31.4225 58.1007ZM31.4225 70.7514C40.2541 70.7514 47.4393 77.9366 47.4393 86.7682V87.8405C35.1201 91.6123 27.7782 82.2409 27.4646 81.8302C26.9497 81.1441 26.1626 80.7149 25.3073 80.6541C24.4519 80.5942 23.6116 80.907 23.0052 81.5134C20.1807 84.3379 17.4142 85.7002 15.4163 86.3579C15.6353 77.7153 22.7286 70.7514 31.4225 70.7514ZM31.4225 126.86L24.5849 120.022C24.7845 119.259 24.8938 118.464 24.8938 117.647V114.035C26.9568 114.68 29.15 115.028 31.4225 115.028C33.695 115.028 35.8882 114.68 37.9512 114.035V117.647C37.9512 118.464 38.0605 119.259 38.2601 120.022L31.4225 126.86ZM31.4225 109.11C22.5909 109.11 15.4057 101.925 15.4057 93.0929V92.4798C17.7654 91.9378 21.2641 90.678 24.9139 87.7427C26.2052 88.961 28.0508 90.4555 30.4011 91.7373C33.1809 93.2535 37.0201 94.6561 41.7095 94.6561C43.4916 94.6561 45.3984 94.4489 47.4141 93.9731C46.9552 102.397 39.9586 109.11 31.4225 109.11Z" fill="black"/>
<path d="M195.12 119.45L178.56 111.17C177.413 110.596 176.7 109.443 176.7 108.16V103.966C180.576 100.525 183.025 95.5095 183.025 89.9308V86.5627C183.093 86.5627 183.16 86.5647 183.228 86.5647C184.863 86.5647 186.187 85.2398 186.187 83.6057V77.2805C186.187 66.9296 177.766 58.5083 167.415 58.5083H161.09C150.739 58.5083 142.318 66.9296 142.318 77.2805V83.6057C142.318 85.2398 143.643 86.5647 145.277 86.5647C145.301 86.5647 145.372 86.5639 145.48 86.5595V89.9308C145.48 95.5099 147.93 100.525 151.806 103.967V108.16C151.806 109.444 151.093 110.597 149.945 111.171C148.483 111.901 147.891 113.679 148.622 115.141C149.14 116.177 150.185 116.777 151.271 116.777C151.715 116.777 152.167 116.677 152.591 116.464C153.116 116.202 153.604 115.892 154.059 115.548L161.294 122.783V162.671C161.294 164.306 162.619 165.63 164.253 165.63C165.887 165.63 167.212 164.306 167.212 162.671V122.782L174.446 115.547C174.901 115.892 175.389 116.202 175.913 116.463L191.937 124.476L187.077 129.336C184.727 131.687 183.432 134.812 183.432 138.137V162.671C183.432 164.305 184.757 165.63 186.391 165.63C188.025 165.63 189.35 164.305 189.35 162.671V138.137C189.35 136.393 190.029 134.754 191.262 133.52L195.866 128.916C196.005 129.452 196.082 130.01 196.082 130.583V162.671C196.082 164.305 197.407 165.63 199.041 165.63C200.675 165.63 202 164.305 202 162.671V130.583C202 125.838 199.364 121.573 195.12 119.45ZM148.235 80.0379V77.2801H148.236C148.236 70.1924 154.002 64.4259 161.09 64.4259H167.415C174.503 64.4259 180.269 70.1924 180.269 77.2801V80.567C167.407 79.873 159.644 74.8676 159.569 74.8183C159.068 74.4845 158.497 74.3211 157.928 74.3211C157.165 74.3211 156.407 74.6163 155.835 75.1879C153.004 78.0191 150.23 79.3818 148.235 80.0379ZM164.253 117.372L157.415 110.534C157.615 109.771 157.724 108.976 157.724 108.16V107.53C159.758 108.287 161.958 108.703 164.253 108.703C166.548 108.703 168.747 108.287 170.781 107.53V108.16C170.781 108.976 170.89 109.771 171.09 110.534L164.253 117.372ZM164.253 102.785C157.165 102.785 151.398 97.019 151.398 89.9308V85.1605C153.471 84.3324 155.885 83.0158 158.343 80.9225C161.45 82.5392 167.951 85.3337 177.107 86.2569V89.9308C177.107 97.0186 171.34 102.785 164.253 102.785Z" fill="black"/>
</mask>
<g mask="url(#mask0)">
<rect width="202" height="202" fill="url(#paint0_linear)"/>
</g>
<defs>
<linearGradient id="paint0_linear" x1="0" y1="0" x2="202.922" y2="0.930282" gradientUnits="userSpaceOnUse">
<stop stop-color="#638FFF"/>
<stop offset="0.994284" stop-color="#3FA3FF"/>
</linearGradient>
</defs>
</svg>
