<svg width="1290" height="278" viewBox="0 0 1290 278" fill="none" xmlns="http://www.w3.org/2000/svg">
<mask id="path-1-inside-1" fill="white">
<path d="M182 70C182 87.6731 167.673 102 150 102C132.327 102 118 87.6731 118 70C118 52.3269 132.327 38 150 38C167.673 38 182 52.3269 182 70ZM123.017 70C123.017 84.9022 135.098 96.9828 150 96.9828C164.902 96.9828 176.983 84.9022 176.983 70C176.983 55.0978 164.902 43.0172 150 43.0172C135.098 43.0172 123.017 55.0978 123.017 70Z"/>
</mask>
<path d="M182 70C182 87.6731 167.673 102 150 102C132.327 102 118 87.6731 118 70C118 52.3269 132.327 38 150 38C167.673 38 182 52.3269 182 70ZM123.017 70C123.017 84.9022 135.098 96.9828 150 96.9828C164.902 96.9828 176.983 84.9022 176.983 70C176.983 55.0978 164.902 43.0172 150 43.0172C135.098 43.0172 123.017 55.0978 123.017 70Z" stroke="#2A97FC" stroke-opacity="0.3" stroke-width="6" mask="url(#path-1-inside-1)"/>
<circle cx="150" cy="70" r="27" fill="#2A97FC"/>
<path d="M151.379 79H149.48V66.7891C149.48 65.7734 149.512 64.8125 149.574 63.9062C149.41 64.0703 149.227 64.2422 149.023 64.4219C148.82 64.6016 147.891 65.3633 146.234 66.707L145.203 65.3711L149.738 61.8672H151.379V79Z" fill="white"/>
<path d="M52.1602 148.473H53.332C54.4805 148.473 55.3281 148.281 55.875 147.898C56.4219 147.516 56.6953 146.914 56.6953 146.094C56.6953 145.281 56.4141 144.703 55.8516 144.359C55.2969 144.016 54.4336 143.844 53.2617 143.844H52.1602V148.473ZM52.1602 151.426V158H48.5273V140.867H53.5195C55.8477 140.867 57.5703 141.293 58.6875 142.145C59.8047 142.988 60.3633 144.273 60.3633 146C60.3633 147.008 60.0859 147.906 59.5312 148.695C58.9766 149.477 58.1914 150.09 57.1758 150.535C59.7539 154.387 61.4336 156.875 62.2148 158H58.1836L54.0938 151.426H52.1602ZM66.9375 151.426C66.9375 152.723 67.1484 153.703 67.5703 154.367C68 155.031 68.6953 155.363 69.6562 155.363C70.6094 155.363 71.293 155.035 71.707 154.379C72.1289 153.715 72.3398 152.73 72.3398 151.426C72.3398 150.129 72.1289 149.156 71.707 148.508C71.2852 147.859 70.5938 147.535 69.6328 147.535C68.6797 147.535 67.9922 147.859 67.5703 148.508C67.1484 149.148 66.9375 150.121 66.9375 151.426ZM75.9961 151.426C75.9961 153.559 75.4336 155.227 74.3086 156.43C73.1836 157.633 71.6172 158.234 69.6094 158.234C68.3516 158.234 67.2422 157.961 66.2812 157.414C65.3203 156.859 64.582 156.066 64.0664 155.035C63.5508 154.004 63.293 152.801 63.293 151.426C63.293 149.285 63.8516 147.621 64.9688 146.434C66.0859 145.246 67.6562 144.652 69.6797 144.652C70.9375 144.652 72.0469 144.926 73.0078 145.473C73.9688 146.02 74.707 146.805 75.2227 147.828C75.7383 148.852 75.9961 150.051 75.9961 151.426ZM81.832 140.867L81.9961 141.125C81.6055 142.664 80.918 144.535 79.9336 146.738H77.3672C77.9062 144.426 78.2969 142.469 78.5391 140.867H81.832ZM82.2773 144.898H86.1914L88.6641 152.27C88.875 152.91 89.0195 153.668 89.0977 154.543H89.168C89.2539 153.738 89.4219 152.98 89.6719 152.27L92.0977 144.898H95.9297L90.3867 159.676C89.8789 161.043 89.1523 162.066 88.207 162.746C87.2695 163.426 86.1719 163.766 84.9141 163.766C84.2969 163.766 83.6914 163.699 83.0977 163.566V160.73C83.5273 160.832 83.9961 160.883 84.5039 160.883C85.1367 160.883 85.6875 160.688 86.1562 160.297C86.6328 159.914 87.0039 159.332 87.2695 158.551L87.4805 157.906L82.2773 144.898ZM100.5 151.309L96.2812 144.898H100.336L102.879 149.07L105.445 144.898H109.5L105.234 151.309L109.699 158H105.633L102.879 153.512L100.113 158H96.0586L100.5 151.309ZM120.012 158L119.32 156.219H119.227C118.625 156.977 118.004 157.504 117.363 157.801C116.73 158.09 115.902 158.234 114.879 158.234C113.621 158.234 112.629 157.875 111.902 157.156C111.184 156.438 110.824 155.414 110.824 154.086C110.824 152.695 111.309 151.672 112.277 151.016C113.254 150.352 114.723 149.984 116.684 149.914L118.957 149.844V149.27C118.957 147.941 118.277 147.277 116.918 147.277C115.871 147.277 114.641 147.594 113.227 148.227L112.043 145.812C113.551 145.023 115.223 144.629 117.059 144.629C118.816 144.629 120.164 145.012 121.102 145.777C122.039 146.543 122.508 147.707 122.508 149.27V158H120.012ZM118.957 151.93L117.574 151.977C116.535 152.008 115.762 152.195 115.254 152.539C114.746 152.883 114.492 153.406 114.492 154.109C114.492 155.117 115.07 155.621 116.227 155.621C117.055 155.621 117.715 155.383 118.207 154.906C118.707 154.43 118.957 153.797 118.957 153.008V151.93ZM131.719 155.387C132.344 155.387 133.094 155.25 133.969 154.977V157.637C133.078 158.035 131.984 158.234 130.688 158.234C129.258 158.234 128.215 157.875 127.559 157.156C126.91 156.43 126.586 155.344 126.586 153.898V147.582H124.875V146.07L126.844 144.875L127.875 142.109H130.16V144.898H133.828V147.582H130.16V153.898C130.16 154.406 130.301 154.781 130.582 155.023C130.871 155.266 131.25 155.387 131.719 155.387ZM140.777 158.234C139.238 158.234 138.027 157.637 137.145 156.441C136.27 155.246 135.832 153.59 135.832 151.473C135.832 149.324 136.277 147.652 137.168 146.457C138.066 145.254 139.301 144.652 140.871 144.652C142.52 144.652 143.777 145.293 144.645 146.574H144.762C144.582 145.598 144.492 144.727 144.492 143.961V139.766H148.078V158H145.336L144.645 156.301H144.492C143.68 157.59 142.441 158.234 140.777 158.234ZM142.031 155.387C142.945 155.387 143.613 155.121 144.035 154.59C144.465 154.059 144.699 153.156 144.738 151.883V151.496C144.738 150.09 144.52 149.082 144.082 148.473C143.652 147.863 142.949 147.559 141.973 147.559C141.176 147.559 140.555 147.898 140.109 148.578C139.672 149.25 139.453 150.23 139.453 151.52C139.453 152.809 139.676 153.777 140.121 154.426C140.566 155.066 141.203 155.387 142.031 155.387ZM160.137 158L159.445 156.219H159.352C158.75 156.977 158.129 157.504 157.488 157.801C156.855 158.09 156.027 158.234 155.004 158.234C153.746 158.234 152.754 157.875 152.027 157.156C151.309 156.438 150.949 155.414 150.949 154.086C150.949 152.695 151.434 151.672 152.402 151.016C153.379 150.352 154.848 149.984 156.809 149.914L159.082 149.844V149.27C159.082 147.941 158.402 147.277 157.043 147.277C155.996 147.277 154.766 147.594 153.352 148.227L152.168 145.812C153.676 145.023 155.348 144.629 157.184 144.629C158.941 144.629 160.289 145.012 161.227 145.777C162.164 146.543 162.633 147.707 162.633 149.27V158H160.137ZM159.082 151.93L157.699 151.977C156.66 152.008 155.887 152.195 155.379 152.539C154.871 152.883 154.617 153.406 154.617 154.109C154.617 155.117 155.195 155.621 156.352 155.621C157.18 155.621 157.84 155.383 158.332 154.906C158.832 154.43 159.082 153.797 159.082 153.008V151.93ZM178.418 158H174.844V150.348C174.844 149.402 174.676 148.695 174.34 148.227C174.004 147.75 173.469 147.512 172.734 147.512C171.734 147.512 171.012 147.848 170.566 148.52C170.121 149.184 169.898 150.289 169.898 151.836V158H166.324V144.898H169.055L169.535 146.574H169.734C170.133 145.941 170.68 145.465 171.375 145.145C172.078 144.816 172.875 144.652 173.766 144.652C175.289 144.652 176.445 145.066 177.234 145.895C178.023 146.715 178.418 147.902 178.418 149.457V158ZM191.18 151.426C191.18 152.723 191.391 153.703 191.812 154.367C192.242 155.031 192.938 155.363 193.898 155.363C194.852 155.363 195.535 155.035 195.949 154.379C196.371 153.715 196.582 152.73 196.582 151.426C196.582 150.129 196.371 149.156 195.949 148.508C195.527 147.859 194.836 147.535 193.875 147.535C192.922 147.535 192.234 147.859 191.812 148.508C191.391 149.148 191.18 150.121 191.18 151.426ZM200.238 151.426C200.238 153.559 199.676 155.227 198.551 156.43C197.426 157.633 195.859 158.234 193.852 158.234C192.594 158.234 191.484 157.961 190.523 157.414C189.562 156.859 188.824 156.066 188.309 155.035C187.793 154.004 187.535 152.801 187.535 151.426C187.535 149.285 188.094 147.621 189.211 146.434C190.328 145.246 191.898 144.652 193.922 144.652C195.18 144.652 196.289 144.926 197.25 145.473C198.211 146.02 198.949 146.805 199.465 147.828C199.98 148.852 200.238 150.051 200.238 151.426ZM206.074 140.867L206.238 141.125C205.848 142.664 205.16 144.535 204.176 146.738H201.609C202.148 144.426 202.539 142.469 202.781 140.867H206.074ZM213.914 155.387C214.539 155.387 215.289 155.25 216.164 154.977V157.637C215.273 158.035 214.18 158.234 212.883 158.234C211.453 158.234 210.41 157.875 209.754 157.156C209.105 156.43 208.781 155.344 208.781 153.898V147.582H207.07V146.07L209.039 144.875L210.07 142.109H212.355V144.898H216.023V147.582H212.355V153.898C212.355 154.406 212.496 154.781 212.777 155.023C213.066 155.266 213.445 155.387 213.914 155.387ZM218.672 141.512C218.672 140.348 219.32 139.766 220.617 139.766C221.914 139.766 222.562 140.348 222.562 141.512C222.562 142.066 222.398 142.5 222.07 142.812C221.75 143.117 221.266 143.27 220.617 143.27C219.32 143.27 218.672 142.684 218.672 141.512ZM222.398 158H218.824V144.898H222.398V158ZM238.254 158H234.68V150.348C234.68 149.402 234.512 148.695 234.176 148.227C233.84 147.75 233.305 147.512 232.57 147.512C231.57 147.512 230.848 147.848 230.402 148.52C229.957 149.184 229.734 150.289 229.734 151.836V158H226.16V144.898H228.891L229.371 146.574H229.57C229.969 145.941 230.516 145.465 231.211 145.145C231.914 144.816 232.711 144.652 233.602 144.652C235.125 144.652 236.281 145.066 237.07 145.895C237.859 146.715 238.254 147.902 238.254 149.457V158ZM253.336 144.898V146.715L251.285 147.242C251.66 147.828 251.848 148.484 251.848 149.211C251.848 150.617 251.355 151.715 250.371 152.504C249.395 153.285 248.035 153.676 246.293 153.676L245.648 153.641L245.121 153.582C244.754 153.863 244.57 154.176 244.57 154.52C244.57 155.035 245.227 155.293 246.539 155.293H248.766C250.203 155.293 251.297 155.602 252.047 156.219C252.805 156.836 253.184 157.742 253.184 158.938C253.184 160.469 252.543 161.656 251.262 162.5C249.988 163.344 248.156 163.766 245.766 163.766C243.938 163.766 242.539 163.445 241.57 162.805C240.609 162.172 240.129 161.281 240.129 160.133C240.129 159.344 240.375 158.684 240.867 158.152C241.359 157.621 242.082 157.242 243.035 157.016C242.668 156.859 242.348 156.605 242.074 156.254C241.801 155.895 241.664 155.516 241.664 155.117C241.664 154.617 241.809 154.203 242.098 153.875C242.387 153.539 242.805 153.211 243.352 152.891C242.664 152.594 242.117 152.117 241.711 151.461C241.312 150.805 241.113 150.031 241.113 149.141C241.113 147.711 241.578 146.605 242.508 145.824C243.438 145.043 244.766 144.652 246.492 144.652C246.859 144.652 247.293 144.688 247.793 144.758C248.301 144.82 248.625 144.867 248.766 144.898H253.336ZM243.223 159.852C243.223 160.344 243.457 160.73 243.926 161.012C244.402 161.293 245.066 161.434 245.918 161.434C247.199 161.434 248.203 161.258 248.93 160.906C249.656 160.555 250.02 160.074 250.02 159.465C250.02 158.973 249.805 158.633 249.375 158.445C248.945 158.258 248.281 158.164 247.383 158.164H245.531C244.875 158.164 244.324 158.316 243.879 158.621C243.441 158.934 243.223 159.344 243.223 159.852ZM244.523 149.188C244.523 149.898 244.684 150.461 245.004 150.875C245.332 151.289 245.828 151.496 246.492 151.496C247.164 151.496 247.656 151.289 247.969 150.875C248.281 150.461 248.438 149.898 248.438 149.188C248.438 147.609 247.789 146.82 246.492 146.82C245.18 146.82 244.523 147.609 244.523 149.188Z" fill="#2A97FC"/>
<circle cx="479" cy="150" r="27" fill="#2A97FC" fill-opacity="0.15"/>
<circle cx="479" cy="150" r="28.5" stroke="#2A97FC" stroke-width="3"/>
<path d="M484.434 159H473.172V157.324L477.684 152.789C479.059 151.398 479.965 150.406 480.402 149.812C480.84 149.219 481.168 148.641 481.387 148.078C481.605 147.516 481.715 146.91 481.715 146.262C481.715 145.348 481.438 144.625 480.883 144.094C480.328 143.555 479.559 143.285 478.574 143.285C477.863 143.285 477.188 143.402 476.547 143.637C475.914 143.871 475.207 144.297 474.426 144.914L473.395 143.59C474.973 142.277 476.691 141.621 478.551 141.621C480.16 141.621 481.422 142.035 482.336 142.863C483.25 143.684 483.707 144.789 483.707 146.18C483.707 147.266 483.402 148.34 482.793 149.402C482.184 150.465 481.043 151.809 479.371 153.434L475.621 157.102V157.195H484.434V159Z" fill="black"/>
<path d="M334.949 231L330.809 219.076H330.73C330.841 220.847 330.896 222.507 330.896 224.057V231H328.777V216.723H332.068L336.033 228.08H336.092L340.174 216.723H343.475V231H341.229V223.939C341.229 223.23 341.245 222.305 341.277 221.166C341.316 220.027 341.349 219.337 341.375 219.096H341.297L337.01 231H334.949ZM354.607 231L354.285 229.584H354.168C353.849 230.085 353.393 230.479 352.801 230.766C352.215 231.052 351.544 231.195 350.789 231.195C349.48 231.195 348.504 230.87 347.859 230.219C347.215 229.568 346.893 228.581 346.893 227.26V220.199H349.207V226.859C349.207 227.686 349.376 228.308 349.715 228.725C350.053 229.135 350.584 229.34 351.307 229.34C352.27 229.34 352.977 229.053 353.426 228.48C353.882 227.901 354.109 226.934 354.109 225.58V220.199H356.414V231H354.607ZM366.443 231L365.984 229.496H365.906C365.385 230.154 364.861 230.603 364.334 230.844C363.807 231.078 363.13 231.195 362.303 231.195C361.242 231.195 360.411 230.909 359.812 230.336C359.22 229.763 358.924 228.952 358.924 227.904C358.924 226.791 359.337 225.951 360.164 225.385C360.991 224.818 362.251 224.509 363.943 224.457L365.809 224.398V223.822C365.809 223.132 365.646 222.618 365.32 222.279C365.001 221.934 364.503 221.762 363.826 221.762C363.273 221.762 362.742 221.843 362.234 222.006C361.727 222.169 361.238 222.361 360.77 222.582L360.027 220.941C360.613 220.635 361.255 220.404 361.951 220.248C362.648 220.085 363.305 220.004 363.924 220.004C365.298 220.004 366.333 220.303 367.029 220.902C367.732 221.501 368.084 222.442 368.084 223.725V231H366.443ZM363.025 229.438C363.859 229.438 364.526 229.206 365.027 228.744C365.535 228.275 365.789 227.621 365.789 226.781V225.844L364.402 225.902C363.322 225.941 362.534 226.124 362.039 226.449C361.551 226.768 361.307 227.26 361.307 227.924C361.307 228.406 361.45 228.78 361.736 229.047C362.023 229.307 362.452 229.438 363.025 229.438ZM380.389 231H378.084V224.34C378.084 223.513 377.928 222.898 377.615 222.494C377.303 222.084 376.814 221.879 376.15 221.879C375.265 221.879 374.614 222.169 374.197 222.748C373.787 223.321 373.582 224.278 373.582 225.619V231H371.287V220.199H373.084L373.406 221.615H373.523C373.823 221.101 374.256 220.704 374.822 220.424C375.395 220.144 376.023 220.004 376.707 220.004C378.367 220.004 379.467 220.57 380.008 221.703H380.164C380.483 221.169 380.932 220.753 381.512 220.453C382.091 220.154 382.755 220.004 383.504 220.004C384.793 220.004 385.73 220.329 386.316 220.98C386.909 221.632 387.205 222.624 387.205 223.959V231H384.91V224.34C384.91 223.513 384.751 222.898 384.432 222.494C384.119 222.084 383.631 221.879 382.967 221.879C382.075 221.879 381.421 222.159 381.004 222.719C380.594 223.272 380.389 224.125 380.389 225.277V231ZM399.51 231H397.205V224.34C397.205 223.513 397.049 222.898 396.736 222.494C396.424 222.084 395.936 221.879 395.271 221.879C394.386 221.879 393.735 222.169 393.318 222.748C392.908 223.321 392.703 224.278 392.703 225.619V231H390.408V220.199H392.205L392.527 221.615H392.645C392.944 221.101 393.377 220.704 393.943 220.424C394.516 220.144 395.145 220.004 395.828 220.004C397.488 220.004 398.589 220.57 399.129 221.703H399.285C399.604 221.169 400.053 220.753 400.633 220.453C401.212 220.154 401.876 220.004 402.625 220.004C403.914 220.004 404.852 220.329 405.438 220.98C406.03 221.632 406.326 222.624 406.326 223.959V231H404.031V224.34C404.031 223.513 403.872 222.898 403.553 222.494C403.24 222.084 402.752 221.879 402.088 221.879C401.196 221.879 400.542 222.159 400.125 222.719C399.715 223.272 399.51 224.125 399.51 225.277V231ZM419.109 225.58C419.109 227.344 418.657 228.721 417.752 229.711C416.847 230.701 415.587 231.195 413.973 231.195C412.964 231.195 412.072 230.967 411.297 230.512C410.522 230.056 409.926 229.402 409.51 228.549C409.093 227.696 408.885 226.706 408.885 225.58C408.885 223.829 409.334 222.462 410.232 221.479C411.131 220.495 412.397 220.004 414.031 220.004C415.594 220.004 416.831 220.508 417.742 221.518C418.654 222.52 419.109 223.874 419.109 225.58ZM411.248 225.58C411.248 228.074 412.169 229.32 414.012 229.32C415.835 229.32 416.746 228.074 416.746 225.58C416.746 223.113 415.828 221.879 413.992 221.879C413.029 221.879 412.329 222.198 411.893 222.836C411.463 223.474 411.248 224.389 411.248 225.58ZM432.469 220.004C433.816 220.004 434.865 220.492 435.613 221.469C436.368 222.445 436.746 223.816 436.746 225.58C436.746 227.351 436.365 228.731 435.604 229.721C434.842 230.704 433.784 231.195 432.43 231.195C431.062 231.195 430.001 230.704 429.246 229.721H429.09L428.67 231H426.951V215.805H429.246V219.418C429.246 219.685 429.233 220.082 429.207 220.609C429.181 221.137 429.161 221.472 429.148 221.615H429.246C429.975 220.541 431.049 220.004 432.469 220.004ZM431.873 221.879C430.949 221.879 430.281 222.152 429.871 222.699C429.467 223.24 429.259 224.148 429.246 225.424V225.58C429.246 226.895 429.454 227.849 429.871 228.441C430.288 229.027 430.968 229.32 431.912 229.32C432.726 229.32 433.341 228.998 433.758 228.354C434.181 227.709 434.393 226.778 434.393 225.561C434.393 223.106 433.553 221.879 431.873 221.879ZM448.992 225.58C448.992 227.344 448.54 228.721 447.635 229.711C446.73 230.701 445.47 231.195 443.855 231.195C442.846 231.195 441.954 230.967 441.18 230.512C440.405 230.056 439.809 229.402 439.393 228.549C438.976 227.696 438.768 226.706 438.768 225.58C438.768 223.829 439.217 222.462 440.115 221.479C441.014 220.495 442.28 220.004 443.914 220.004C445.477 220.004 446.714 220.508 447.625 221.518C448.536 222.52 448.992 223.874 448.992 225.58ZM441.131 225.58C441.131 228.074 442.052 229.32 443.895 229.32C445.717 229.32 446.629 228.074 446.629 225.58C446.629 223.113 445.711 221.879 443.875 221.879C442.911 221.879 442.212 222.198 441.775 222.836C441.346 223.474 441.131 224.389 441.131 225.58ZM453.475 216.723L453.621 216.938C453.276 218.298 452.703 219.857 451.902 221.615H450.242C450.691 219.734 451.017 218.103 451.219 216.723H453.475ZM453.865 220.199H456.365L458.562 226.322C458.895 227.195 459.116 228.015 459.227 228.783H459.305C459.363 228.425 459.471 227.992 459.627 227.484C459.783 226.97 460.61 224.542 462.107 220.199H464.588L459.969 232.436C459.129 234.682 457.729 235.805 455.77 235.805C455.262 235.805 454.767 235.749 454.285 235.639V233.822C454.63 233.9 455.024 233.939 455.467 233.939C456.574 233.939 457.352 233.298 457.801 232.016L458.201 231L453.865 220.199ZM468.523 231H466.229V220.199H468.523V231ZM466.092 217.338C466.092 216.928 466.202 216.612 466.424 216.391C466.652 216.169 466.974 216.059 467.391 216.059C467.794 216.059 468.107 216.169 468.328 216.391C468.556 216.612 468.67 216.928 468.67 217.338C468.67 217.729 468.556 218.038 468.328 218.266C468.107 218.487 467.794 218.598 467.391 218.598C466.974 218.598 466.652 218.487 466.424 218.266C466.202 218.038 466.092 217.729 466.092 217.338ZM476.17 231.195C474.536 231.195 473.292 230.72 472.439 229.77C471.593 228.812 471.17 227.442 471.17 225.658C471.17 223.842 471.613 222.445 472.498 221.469C473.39 220.492 474.676 220.004 476.355 220.004C477.495 220.004 478.52 220.215 479.432 220.639L478.738 222.484C477.768 222.107 476.967 221.918 476.336 221.918C474.467 221.918 473.533 223.158 473.533 225.639C473.533 226.85 473.764 227.761 474.227 228.373C474.695 228.979 475.379 229.281 476.277 229.281C477.299 229.281 478.266 229.027 479.178 228.52V230.521C478.768 230.762 478.328 230.935 477.859 231.039C477.397 231.143 476.834 231.195 476.17 231.195ZM491.219 231H488.914V224.359C488.914 223.526 488.745 222.904 488.406 222.494C488.074 222.084 487.544 221.879 486.814 221.879C485.851 221.879 485.141 222.169 484.686 222.748C484.236 223.321 484.012 224.285 484.012 225.639V231H481.717V215.805H484.012V219.662C484.012 220.281 483.973 220.941 483.895 221.645H484.041C484.354 221.124 484.786 220.72 485.34 220.434C485.9 220.147 486.551 220.004 487.293 220.004C489.91 220.004 491.219 221.322 491.219 223.959V231ZM501.17 231L500.711 229.496H500.633C500.112 230.154 499.588 230.603 499.061 230.844C498.533 231.078 497.856 231.195 497.029 231.195C495.968 231.195 495.138 230.909 494.539 230.336C493.947 229.763 493.65 228.952 493.65 227.904C493.65 226.791 494.064 225.951 494.891 225.385C495.717 224.818 496.977 224.509 498.67 224.457L500.535 224.398V223.822C500.535 223.132 500.372 222.618 500.047 222.279C499.728 221.934 499.23 221.762 498.553 221.762C497.999 221.762 497.469 221.843 496.961 222.006C496.453 222.169 495.965 222.361 495.496 222.582L494.754 220.941C495.34 220.635 495.981 220.404 496.678 220.248C497.374 220.085 498.032 220.004 498.65 220.004C500.024 220.004 501.059 220.303 501.756 220.902C502.459 221.501 502.811 222.442 502.811 223.725V231H501.17ZM497.752 229.438C498.585 229.438 499.253 229.206 499.754 228.744C500.262 228.275 500.516 227.621 500.516 226.781V225.844L499.129 225.902C498.048 225.941 497.26 226.124 496.766 226.449C496.277 226.768 496.033 227.26 496.033 227.924C496.033 228.406 496.176 228.78 496.463 229.047C496.749 229.307 497.179 229.438 497.752 229.438ZM513.611 225.482L509.988 220.199H512.605L515.066 223.979L517.547 220.199H520.145L516.512 225.482L520.33 231H517.732L515.066 226.957L512.41 231H509.812L513.611 225.482ZM528.982 231L528.523 229.496H528.445C527.924 230.154 527.4 230.603 526.873 230.844C526.346 231.078 525.669 231.195 524.842 231.195C523.781 231.195 522.951 230.909 522.352 230.336C521.759 229.763 521.463 228.952 521.463 227.904C521.463 226.791 521.876 225.951 522.703 225.385C523.53 224.818 524.79 224.509 526.482 224.457L528.348 224.398V223.822C528.348 223.132 528.185 222.618 527.859 222.279C527.54 221.934 527.042 221.762 526.365 221.762C525.812 221.762 525.281 221.843 524.773 222.006C524.266 222.169 523.777 222.361 523.309 222.582L522.566 220.941C523.152 220.635 523.794 220.404 524.49 220.248C525.187 220.085 525.844 220.004 526.463 220.004C527.837 220.004 528.872 220.303 529.568 220.902C530.271 221.501 530.623 222.442 530.623 223.725V231H528.982ZM525.564 229.438C526.398 229.438 527.065 229.206 527.566 228.744C528.074 228.275 528.328 227.621 528.328 226.781V225.844L526.941 225.902C525.861 225.941 525.073 226.124 524.578 226.449C524.09 226.768 523.846 227.26 523.846 227.924C523.846 228.406 523.989 228.78 524.275 229.047C524.562 229.307 524.992 229.438 525.564 229.438ZM539.344 220.004C540.691 220.004 541.74 220.492 542.488 221.469C543.243 222.445 543.621 223.816 543.621 225.58C543.621 227.351 543.24 228.731 542.479 229.721C541.717 230.704 540.659 231.195 539.305 231.195C537.938 231.195 536.876 230.704 536.121 229.721H535.965L535.545 231H533.826V215.805H536.121V219.418C536.121 219.685 536.108 220.082 536.082 220.609C536.056 221.137 536.036 221.472 536.023 221.615H536.121C536.85 220.541 537.924 220.004 539.344 220.004ZM538.748 221.879C537.824 221.879 537.156 222.152 536.746 222.699C536.342 223.24 536.134 224.148 536.121 225.424V225.58C536.121 226.895 536.329 227.849 536.746 228.441C537.163 229.027 537.843 229.32 538.787 229.32C539.601 229.32 540.216 228.998 540.633 228.354C541.056 227.709 541.268 226.778 541.268 225.561C541.268 223.106 540.428 221.879 538.748 221.879ZM553.045 231L552.586 229.496H552.508C551.987 230.154 551.463 230.603 550.936 230.844C550.408 231.078 549.731 231.195 548.904 231.195C547.843 231.195 547.013 230.909 546.414 230.336C545.822 229.763 545.525 228.952 545.525 227.904C545.525 226.791 545.939 225.951 546.766 225.385C547.592 224.818 548.852 224.509 550.545 224.457L552.41 224.398V223.822C552.41 223.132 552.247 222.618 551.922 222.279C551.603 221.934 551.105 221.762 550.428 221.762C549.874 221.762 549.344 221.843 548.836 222.006C548.328 222.169 547.84 222.361 547.371 222.582L546.629 220.941C547.215 220.635 547.856 220.404 548.553 220.248C549.249 220.085 549.907 220.004 550.525 220.004C551.899 220.004 552.934 220.303 553.631 220.902C554.334 221.501 554.686 222.442 554.686 223.725V231H553.045ZM549.627 229.438C550.46 229.438 551.128 229.206 551.629 228.744C552.137 228.275 552.391 227.621 552.391 226.781V225.844L551.004 225.902C549.923 225.941 549.135 226.124 548.641 226.449C548.152 226.768 547.908 227.26 547.908 227.924C547.908 228.406 548.051 228.78 548.338 229.047C548.624 229.307 549.054 229.438 549.627 229.438ZM563.367 220.004C563.829 220.004 564.21 220.036 564.51 220.102L564.285 222.24C563.96 222.162 563.621 222.123 563.27 222.123C562.352 222.123 561.606 222.423 561.033 223.021C560.467 223.62 560.184 224.398 560.184 225.355V231H557.889V220.199H559.686L559.988 222.104H560.105C560.464 221.459 560.929 220.948 561.502 220.57C562.081 220.193 562.703 220.004 563.367 220.004ZM577.234 220.004C578.582 220.004 579.63 220.492 580.379 221.469C581.134 222.445 581.512 223.816 581.512 225.58C581.512 227.351 581.131 228.731 580.369 229.721C579.607 230.704 578.549 231.195 577.195 231.195C575.828 231.195 574.767 230.704 574.012 229.721H573.855L573.436 231H571.717V215.805H574.012V219.418C574.012 219.685 573.999 220.082 573.973 220.609C573.947 221.137 573.927 221.472 573.914 221.615H574.012C574.741 220.541 575.815 220.004 577.234 220.004ZM576.639 221.879C575.714 221.879 575.047 222.152 574.637 222.699C574.233 223.24 574.025 224.148 574.012 225.424V225.58C574.012 226.895 574.22 227.849 574.637 228.441C575.053 229.027 575.734 229.32 576.678 229.32C577.492 229.32 578.107 228.998 578.523 228.354C578.947 227.709 579.158 226.778 579.158 225.561C579.158 223.106 578.318 221.879 576.639 221.879ZM588.895 231.195C587.215 231.195 585.9 230.707 584.949 229.73C584.005 228.747 583.533 227.396 583.533 225.678C583.533 223.913 583.973 222.527 584.852 221.518C585.73 220.508 586.938 220.004 588.475 220.004C589.9 220.004 591.027 220.437 591.854 221.303C592.68 222.169 593.094 223.36 593.094 224.877V226.117H585.896C585.929 227.165 586.212 227.973 586.746 228.539C587.28 229.099 588.032 229.379 589.002 229.379C589.64 229.379 590.232 229.32 590.779 229.203C591.333 229.079 591.925 228.878 592.557 228.598V230.463C591.997 230.73 591.43 230.919 590.857 231.029C590.285 231.14 589.63 231.195 588.895 231.195ZM588.475 221.742C587.745 221.742 587.16 221.973 586.717 222.436C586.281 222.898 586.02 223.572 585.936 224.457H590.838C590.825 223.565 590.61 222.891 590.193 222.436C589.777 221.973 589.204 221.742 588.475 221.742ZM601.18 220.004C601.642 220.004 602.023 220.036 602.322 220.102L602.098 222.24C601.772 222.162 601.434 222.123 601.082 222.123C600.164 222.123 599.419 222.423 598.846 223.021C598.279 223.62 597.996 224.398 597.996 225.355V231H595.701V220.199H597.498L597.801 222.104H597.918C598.276 221.459 598.742 220.948 599.314 220.57C599.894 220.193 600.516 220.004 601.18 220.004ZM606.629 231H604.334V220.199H606.629V231ZM604.197 217.338C604.197 216.928 604.308 216.612 604.529 216.391C604.757 216.169 605.079 216.059 605.496 216.059C605.9 216.059 606.212 216.169 606.434 216.391C606.661 216.612 606.775 216.928 606.775 217.338C606.775 217.729 606.661 218.038 606.434 218.266C606.212 218.487 605.9 218.598 605.496 218.598C605.079 218.598 604.757 218.487 604.529 218.266C604.308 218.038 604.197 217.729 604.197 217.338ZM619.422 231H617.117V224.359C617.117 223.526 616.948 222.904 616.609 222.494C616.277 222.084 615.747 221.879 615.018 221.879C614.048 221.879 613.338 222.165 612.889 222.738C612.439 223.311 612.215 224.271 612.215 225.619V231H609.92V220.199H611.717L612.039 221.615H612.156C612.482 221.101 612.944 220.704 613.543 220.424C614.142 220.144 614.806 220.004 615.535 220.004C618.126 220.004 619.422 221.322 619.422 223.959V231ZM631.736 220.199V221.459L629.891 221.801C630.06 222.029 630.2 222.309 630.311 222.641C630.421 222.973 630.477 223.324 630.477 223.695C630.477 224.809 630.092 225.684 629.324 226.322C628.556 226.96 627.498 227.279 626.15 227.279C625.805 227.279 625.493 227.253 625.213 227.201C624.718 227.507 624.471 227.865 624.471 228.275C624.471 228.523 624.585 228.708 624.812 228.832C625.047 228.956 625.473 229.018 626.092 229.018H627.977C629.168 229.018 630.073 229.271 630.691 229.779C631.31 230.287 631.619 231.02 631.619 231.977C631.619 233.201 631.115 234.145 630.105 234.809C629.096 235.473 627.638 235.805 625.73 235.805C624.259 235.805 623.136 235.544 622.361 235.023C621.587 234.503 621.199 233.76 621.199 232.797C621.199 232.133 621.408 231.573 621.824 231.117C622.247 230.668 622.837 230.355 623.592 230.18C623.286 230.049 623.032 229.841 622.83 229.555C622.635 229.262 622.537 228.956 622.537 228.637C622.537 228.233 622.651 227.891 622.879 227.611C623.107 227.331 623.445 227.055 623.895 226.781C623.335 226.54 622.879 226.15 622.527 225.609C622.182 225.062 622.01 224.424 622.01 223.695C622.01 222.523 622.378 221.615 623.113 220.971C623.855 220.326 624.91 220.004 626.277 220.004C626.583 220.004 626.902 220.027 627.234 220.072C627.573 220.111 627.827 220.154 627.996 220.199H631.736ZM623.25 232.68C623.25 233.174 623.471 233.555 623.914 233.822C624.363 234.089 624.992 234.223 625.799 234.223C627.049 234.223 627.98 234.044 628.592 233.686C629.204 233.327 629.51 232.852 629.51 232.26C629.51 231.791 629.34 231.456 629.002 231.254C628.67 231.059 628.048 230.961 627.137 230.961H625.398C624.741 230.961 624.217 231.114 623.826 231.42C623.442 231.732 623.25 232.152 623.25 232.68ZM624.236 223.695C624.236 224.372 624.409 224.893 624.754 225.258C625.105 225.622 625.607 225.805 626.258 225.805C627.586 225.805 628.25 225.095 628.25 223.676C628.25 222.973 628.084 222.432 627.752 222.055C627.426 221.671 626.928 221.479 626.258 221.479C625.594 221.479 625.089 221.667 624.744 222.045C624.406 222.423 624.236 222.973 624.236 223.695Z" fill="#131232"/>
<circle cx="810" cy="71" r="27" fill="#2A97FC" fill-opacity="0.15"/>
<circle cx="810" cy="71" r="28.5" stroke="#2A97FC" stroke-width="3"/>
<path d="M814.789 66.8984C814.789 67.9922 814.48 68.8867 813.863 69.582C813.254 70.2773 812.387 70.7422 811.262 70.9766V71.0703C812.637 71.2422 813.656 71.6797 814.32 72.3828C814.984 73.0859 815.316 74.0078 815.316 75.1484C815.316 76.7812 814.75 78.0391 813.617 78.9219C812.484 79.7969 810.875 80.2344 808.789 80.2344C807.883 80.2344 807.051 80.1641 806.293 80.0234C805.543 79.8906 804.812 79.6523 804.102 79.3086V77.457C804.844 77.8242 805.633 78.1055 806.469 78.3008C807.312 78.4883 808.109 78.582 808.859 78.582C811.82 78.582 813.301 77.4219 813.301 75.1016C813.301 73.0234 811.668 71.9844 808.402 71.9844H806.715V70.3086H808.426C809.762 70.3086 810.82 70.0156 811.602 69.4297C812.383 68.8359 812.773 68.0156 812.773 66.9688C812.773 66.1328 812.484 65.4766 811.906 65C811.336 64.5234 810.559 64.2852 809.574 64.2852C808.824 64.2852 808.117 64.3867 807.453 64.5898C806.789 64.793 806.031 65.168 805.18 65.7148L804.195 64.4023C804.898 63.8477 805.707 63.4141 806.621 63.1016C807.543 62.7812 808.512 62.6211 809.527 62.6211C811.191 62.6211 812.484 63.0039 813.406 63.7695C814.328 64.5273 814.789 65.5703 814.789 66.8984Z" fill="black"/>
<path d="M681.904 152L677.764 140.076H677.686C677.796 141.847 677.852 143.507 677.852 145.057V152H675.732V137.723H679.023L682.988 149.08H683.047L687.129 137.723H690.43V152H688.184V144.939C688.184 144.23 688.2 143.305 688.232 142.166C688.271 141.027 688.304 140.337 688.33 140.096H688.252L683.965 152H681.904ZM701.562 152L701.24 150.584H701.123C700.804 151.085 700.348 151.479 699.756 151.766C699.17 152.052 698.499 152.195 697.744 152.195C696.436 152.195 695.459 151.87 694.814 151.219C694.17 150.568 693.848 149.581 693.848 148.26V141.199H696.162V147.859C696.162 148.686 696.331 149.308 696.67 149.725C697.008 150.135 697.539 150.34 698.262 150.34C699.225 150.34 699.932 150.053 700.381 149.48C700.837 148.901 701.064 147.934 701.064 146.58V141.199H703.369V152H701.562ZM713.398 152L712.939 150.496H712.861C712.34 151.154 711.816 151.603 711.289 151.844C710.762 152.078 710.085 152.195 709.258 152.195C708.197 152.195 707.367 151.909 706.768 151.336C706.175 150.763 705.879 149.952 705.879 148.904C705.879 147.791 706.292 146.951 707.119 146.385C707.946 145.818 709.206 145.509 710.898 145.457L712.764 145.398V144.822C712.764 144.132 712.601 143.618 712.275 143.279C711.956 142.934 711.458 142.762 710.781 142.762C710.228 142.762 709.697 142.843 709.189 143.006C708.682 143.169 708.193 143.361 707.725 143.582L706.982 141.941C707.568 141.635 708.21 141.404 708.906 141.248C709.603 141.085 710.26 141.004 710.879 141.004C712.253 141.004 713.288 141.303 713.984 141.902C714.688 142.501 715.039 143.442 715.039 144.725V152H713.398ZM709.98 150.438C710.814 150.438 711.481 150.206 711.982 149.744C712.49 149.275 712.744 148.621 712.744 147.781V146.844L711.357 146.902C710.277 146.941 709.489 147.124 708.994 147.449C708.506 147.768 708.262 148.26 708.262 148.924C708.262 149.406 708.405 149.78 708.691 150.047C708.978 150.307 709.408 150.438 709.98 150.438ZM727.344 152H725.039V145.34C725.039 144.513 724.883 143.898 724.57 143.494C724.258 143.084 723.77 142.879 723.105 142.879C722.22 142.879 721.569 143.169 721.152 143.748C720.742 144.321 720.537 145.278 720.537 146.619V152H718.242V141.199H720.039L720.361 142.615H720.479C720.778 142.101 721.211 141.704 721.777 141.424C722.35 141.144 722.979 141.004 723.662 141.004C725.322 141.004 726.423 141.57 726.963 142.703H727.119C727.438 142.169 727.887 141.753 728.467 141.453C729.046 141.154 729.71 141.004 730.459 141.004C731.748 141.004 732.686 141.329 733.271 141.98C733.864 142.632 734.16 143.624 734.16 144.959V152H731.865V145.34C731.865 144.513 731.706 143.898 731.387 143.494C731.074 143.084 730.586 142.879 729.922 142.879C729.03 142.879 728.376 143.159 727.959 143.719C727.549 144.272 727.344 145.125 727.344 146.277V152ZM746.465 152H744.16V145.34C744.16 144.513 744.004 143.898 743.691 143.494C743.379 143.084 742.891 142.879 742.227 142.879C741.341 142.879 740.69 143.169 740.273 143.748C739.863 144.321 739.658 145.278 739.658 146.619V152H737.363V141.199H739.16L739.482 142.615H739.6C739.899 142.101 740.332 141.704 740.898 141.424C741.471 141.144 742.1 141.004 742.783 141.004C744.443 141.004 745.544 141.57 746.084 142.703H746.24C746.559 142.169 747.008 141.753 747.588 141.453C748.167 141.154 748.831 141.004 749.58 141.004C750.869 141.004 751.807 141.329 752.393 141.98C752.985 142.632 753.281 143.624 753.281 144.959V152H750.986V145.34C750.986 144.513 750.827 143.898 750.508 143.494C750.195 143.084 749.707 142.879 749.043 142.879C748.151 142.879 747.497 143.159 747.08 143.719C746.67 144.272 746.465 145.125 746.465 146.277V152ZM766.064 146.58C766.064 148.344 765.612 149.721 764.707 150.711C763.802 151.701 762.542 152.195 760.928 152.195C759.919 152.195 759.027 151.967 758.252 151.512C757.477 151.056 756.882 150.402 756.465 149.549C756.048 148.696 755.84 147.706 755.84 146.58C755.84 144.829 756.289 143.462 757.188 142.479C758.086 141.495 759.352 141.004 760.986 141.004C762.549 141.004 763.786 141.508 764.697 142.518C765.609 143.52 766.064 144.874 766.064 146.58ZM758.203 146.58C758.203 149.074 759.124 150.32 760.967 150.32C762.79 150.32 763.701 149.074 763.701 146.58C763.701 144.113 762.783 142.879 760.947 142.879C759.984 142.879 759.284 143.198 758.848 143.836C758.418 144.474 758.203 145.389 758.203 146.58ZM772.266 141.199H774.766L776.963 147.322C777.295 148.195 777.516 149.015 777.627 149.783H777.705C777.764 149.425 777.871 148.992 778.027 148.484C778.184 147.97 779.01 145.542 780.508 141.199H782.988L778.369 153.436C777.529 155.682 776.13 156.805 774.17 156.805C773.662 156.805 773.167 156.749 772.686 156.639V154.822C773.031 154.9 773.424 154.939 773.867 154.939C774.974 154.939 775.752 154.298 776.201 153.016L776.602 152L772.266 141.199ZM789.346 152.195C787.666 152.195 786.351 151.707 785.4 150.73C784.456 149.747 783.984 148.396 783.984 146.678C783.984 144.913 784.424 143.527 785.303 142.518C786.182 141.508 787.389 141.004 788.926 141.004C790.352 141.004 791.478 141.437 792.305 142.303C793.132 143.169 793.545 144.36 793.545 145.877V147.117H786.348C786.38 148.165 786.663 148.973 787.197 149.539C787.731 150.099 788.483 150.379 789.453 150.379C790.091 150.379 790.684 150.32 791.23 150.203C791.784 150.079 792.376 149.878 793.008 149.598V151.463C792.448 151.73 791.882 151.919 791.309 152.029C790.736 152.14 790.081 152.195 789.346 152.195ZM788.926 142.742C788.197 142.742 787.611 142.973 787.168 143.436C786.732 143.898 786.471 144.572 786.387 145.457H791.289C791.276 144.565 791.061 143.891 790.645 143.436C790.228 142.973 789.655 142.742 788.926 142.742ZM800.508 152.195C798.874 152.195 797.63 151.72 796.777 150.77C795.931 149.812 795.508 148.442 795.508 146.658C795.508 144.842 795.951 143.445 796.836 142.469C797.728 141.492 799.014 141.004 800.693 141.004C801.833 141.004 802.858 141.215 803.77 141.639L803.076 143.484C802.106 143.107 801.305 142.918 800.674 142.918C798.805 142.918 797.871 144.158 797.871 146.639C797.871 147.85 798.102 148.761 798.564 149.373C799.033 149.979 799.717 150.281 800.615 150.281C801.637 150.281 802.604 150.027 803.516 149.52V151.521C803.105 151.762 802.666 151.935 802.197 152.039C801.735 152.143 801.172 152.195 800.508 152.195ZM815.557 152H813.252V145.359C813.252 144.526 813.083 143.904 812.744 143.494C812.412 143.084 811.882 142.879 811.152 142.879C810.189 142.879 809.479 143.169 809.023 143.748C808.574 144.321 808.35 145.285 808.35 146.639V152H806.055V136.805H808.35V140.662C808.35 141.281 808.311 141.941 808.232 142.645H808.379C808.691 142.124 809.124 141.72 809.678 141.434C810.238 141.147 810.889 141.004 811.631 141.004C814.248 141.004 815.557 142.322 815.557 144.959V152ZM821.045 152H818.75V141.199H821.045V152ZM818.613 138.338C818.613 137.928 818.724 137.612 818.945 137.391C819.173 137.169 819.495 137.059 819.912 137.059C820.316 137.059 820.628 137.169 820.85 137.391C821.077 137.612 821.191 137.928 821.191 138.338C821.191 138.729 821.077 139.038 820.85 139.266C820.628 139.487 820.316 139.598 819.912 139.598C819.495 139.598 819.173 139.487 818.945 139.266C818.724 139.038 818.613 138.729 818.613 138.338ZM826.631 152H824.336V136.805H826.631V152ZM832.217 152H829.922V141.199H832.217V152ZM829.785 138.338C829.785 137.928 829.896 137.612 830.117 137.391C830.345 137.169 830.667 137.059 831.084 137.059C831.488 137.059 831.8 137.169 832.021 137.391C832.249 137.612 832.363 137.928 832.363 138.338C832.363 138.729 832.249 139.038 832.021 139.266C831.8 139.487 831.488 139.598 831.084 139.598C830.667 139.598 830.345 139.487 830.117 139.266C829.896 139.038 829.785 138.729 829.785 138.338ZM842.764 148.924C842.764 149.979 842.38 150.789 841.611 151.355C840.843 151.915 839.743 152.195 838.311 152.195C836.872 152.195 835.716 151.977 834.844 151.541V149.559C836.113 150.145 837.295 150.438 838.389 150.438C839.801 150.438 840.508 150.011 840.508 149.158C840.508 148.885 840.43 148.657 840.273 148.475C840.117 148.292 839.86 148.104 839.502 147.908C839.144 147.713 838.646 147.492 838.008 147.244C836.764 146.762 835.921 146.281 835.479 145.799C835.042 145.317 834.824 144.692 834.824 143.924C834.824 142.999 835.195 142.283 835.938 141.775C836.686 141.261 837.702 141.004 838.984 141.004C840.254 141.004 841.455 141.261 842.588 141.775L841.846 143.504C840.68 143.022 839.701 142.781 838.906 142.781C837.695 142.781 837.09 143.126 837.09 143.816C837.09 144.155 837.246 144.441 837.559 144.676C837.878 144.91 838.568 145.232 839.629 145.643C840.521 145.988 841.169 146.303 841.572 146.59C841.976 146.876 842.275 147.208 842.471 147.586C842.666 147.957 842.764 148.403 842.764 148.924ZM854.756 152H852.451V145.359C852.451 144.526 852.282 143.904 851.943 143.494C851.611 143.084 851.081 142.879 850.352 142.879C849.388 142.879 848.678 143.169 848.223 143.748C847.773 144.321 847.549 145.285 847.549 146.639V152H845.254V136.805H847.549V140.662C847.549 141.281 847.51 141.941 847.432 142.645H847.578C847.891 142.124 848.324 141.72 848.877 141.434C849.437 141.147 850.088 141.004 850.83 141.004C853.447 141.004 854.756 142.322 854.756 144.959V152ZM860.244 152H857.949V141.199H860.244V152ZM857.812 138.338C857.812 137.928 857.923 137.612 858.145 137.391C858.372 137.169 858.695 137.059 859.111 137.059C859.515 137.059 859.827 137.169 860.049 137.391C860.277 137.612 860.391 137.928 860.391 138.338C860.391 138.729 860.277 139.038 860.049 139.266C859.827 139.487 859.515 139.598 859.111 139.598C858.695 139.598 858.372 139.487 858.145 139.266C857.923 139.038 857.812 138.729 857.812 138.338ZM874.248 141.004C875.596 141.004 876.644 141.492 877.393 142.469C878.148 143.445 878.525 144.816 878.525 146.58C878.525 148.351 878.145 149.731 877.383 150.721C876.621 151.704 875.563 152.195 874.209 152.195C872.842 152.195 871.781 151.704 871.025 150.721H870.869L870.449 152H868.73V136.805H871.025V140.418C871.025 140.685 871.012 141.082 870.986 141.609C870.96 142.137 870.941 142.472 870.928 142.615H871.025C871.755 141.541 872.829 141.004 874.248 141.004ZM873.652 142.879C872.728 142.879 872.061 143.152 871.65 143.699C871.247 144.24 871.038 145.148 871.025 146.424V146.58C871.025 147.895 871.234 148.849 871.65 149.441C872.067 150.027 872.747 150.32 873.691 150.32C874.505 150.32 875.12 149.998 875.537 149.354C875.96 148.709 876.172 147.778 876.172 146.561C876.172 144.106 875.332 142.879 873.652 142.879ZM890.771 146.58C890.771 148.344 890.319 149.721 889.414 150.711C888.509 151.701 887.249 152.195 885.635 152.195C884.626 152.195 883.734 151.967 882.959 151.512C882.184 151.056 881.589 150.402 881.172 149.549C880.755 148.696 880.547 147.706 880.547 146.58C880.547 144.829 880.996 143.462 881.895 142.479C882.793 141.495 884.059 141.004 885.693 141.004C887.256 141.004 888.493 141.508 889.404 142.518C890.316 143.52 890.771 144.874 890.771 146.58ZM882.91 146.58C882.91 149.074 883.831 150.32 885.674 150.32C887.497 150.32 888.408 149.074 888.408 146.58C888.408 144.113 887.49 142.879 885.654 142.879C884.691 142.879 883.991 143.198 883.555 143.836C883.125 144.474 882.91 145.389 882.91 146.58ZM895.254 137.723L895.4 137.938C895.055 139.298 894.482 140.857 893.682 142.615H892.021C892.471 140.734 892.796 139.103 892.998 137.723H895.254ZM895.645 141.199H898.145L900.342 147.322C900.674 148.195 900.895 149.015 901.006 149.783H901.084C901.143 149.425 901.25 148.992 901.406 148.484C901.562 147.97 902.389 145.542 903.887 141.199H906.367L901.748 153.436C900.908 155.682 899.508 156.805 897.549 156.805C897.041 156.805 896.546 156.749 896.064 156.639V154.822C896.41 154.9 896.803 154.939 897.246 154.939C898.353 154.939 899.131 154.298 899.58 153.016L899.98 152L895.645 141.199ZM910.303 152H908.008V141.199H910.303V152ZM907.871 138.338C907.871 137.928 907.982 137.612 908.203 137.391C908.431 137.169 908.753 137.059 909.17 137.059C909.574 137.059 909.886 137.169 910.107 137.391C910.335 137.612 910.449 137.928 910.449 138.338C910.449 138.729 910.335 139.038 910.107 139.266C909.886 139.487 909.574 139.598 909.17 139.598C908.753 139.598 908.431 139.487 908.203 139.266C907.982 139.038 907.871 138.729 907.871 138.338ZM917.949 152.195C916.315 152.195 915.072 151.72 914.219 150.77C913.372 149.812 912.949 148.442 912.949 146.658C912.949 144.842 913.392 143.445 914.277 142.469C915.169 141.492 916.455 141.004 918.135 141.004C919.274 141.004 920.299 141.215 921.211 141.639L920.518 143.484C919.548 143.107 918.747 142.918 918.115 142.918C916.247 142.918 915.312 144.158 915.312 146.639C915.312 147.85 915.544 148.761 916.006 149.373C916.475 149.979 917.158 150.281 918.057 150.281C919.079 150.281 920.046 150.027 920.957 149.52V151.521C920.547 151.762 920.107 151.935 919.639 152.039C919.176 152.143 918.613 152.195 917.949 152.195ZM932.998 152H930.693V145.359C930.693 144.526 930.524 143.904 930.186 143.494C929.854 143.084 929.323 142.879 928.594 142.879C927.63 142.879 926.921 143.169 926.465 143.748C926.016 144.321 925.791 145.285 925.791 146.639V152H923.496V136.805H925.791V140.662C925.791 141.281 925.752 141.941 925.674 142.645H925.82C926.133 142.124 926.566 141.72 927.119 141.434C927.679 141.147 928.33 141.004 929.072 141.004C931.689 141.004 932.998 142.322 932.998 144.959V152ZM942.949 152L942.49 150.496H942.412C941.891 151.154 941.367 151.603 940.84 151.844C940.312 152.078 939.635 152.195 938.809 152.195C937.747 152.195 936.917 151.909 936.318 151.336C935.726 150.763 935.43 149.952 935.43 148.904C935.43 147.791 935.843 146.951 936.67 146.385C937.497 145.818 938.757 145.509 940.449 145.457L942.314 145.398V144.822C942.314 144.132 942.152 143.618 941.826 143.279C941.507 142.934 941.009 142.762 940.332 142.762C939.779 142.762 939.248 142.843 938.74 143.006C938.232 143.169 937.744 143.361 937.275 143.582L936.533 141.941C937.119 141.635 937.76 141.404 938.457 141.248C939.154 141.085 939.811 141.004 940.43 141.004C941.803 141.004 942.839 141.303 943.535 141.902C944.238 142.501 944.59 143.442 944.59 144.725V152H942.949ZM939.531 150.438C940.365 150.438 941.032 150.206 941.533 149.744C942.041 149.275 942.295 148.621 942.295 147.781V146.844L940.908 146.902C939.827 146.941 939.04 147.124 938.545 147.449C938.057 147.768 937.812 148.26 937.812 148.924C937.812 149.406 937.956 149.78 938.242 150.047C938.529 150.307 938.958 150.438 939.531 150.438ZM751.221 179H748.916V172.359C748.916 171.526 748.747 170.904 748.408 170.494C748.076 170.084 747.546 169.879 746.816 169.879C745.846 169.879 745.137 170.165 744.688 170.738C744.238 171.311 744.014 172.271 744.014 173.619V179H741.719V168.199H743.516L743.838 169.615H743.955C744.281 169.101 744.743 168.704 745.342 168.424C745.941 168.144 746.605 168.004 747.334 168.004C749.925 168.004 751.221 169.322 751.221 171.959V179ZM761.172 179L760.713 177.496H760.635C760.114 178.154 759.59 178.603 759.062 178.844C758.535 179.078 757.858 179.195 757.031 179.195C755.97 179.195 755.14 178.909 754.541 178.336C753.949 177.763 753.652 176.952 753.652 175.904C753.652 174.791 754.066 173.951 754.893 173.385C755.719 172.818 756.979 172.509 758.672 172.457L760.537 172.398V171.822C760.537 171.132 760.374 170.618 760.049 170.279C759.73 169.934 759.232 169.762 758.555 169.762C758.001 169.762 757.471 169.843 756.963 170.006C756.455 170.169 755.967 170.361 755.498 170.582L754.756 168.941C755.342 168.635 755.983 168.404 756.68 168.248C757.376 168.085 758.034 168.004 758.652 168.004C760.026 168.004 761.061 168.303 761.758 168.902C762.461 169.501 762.812 170.442 762.812 171.725V179H761.172ZM757.754 177.438C758.587 177.438 759.255 177.206 759.756 176.744C760.264 176.275 760.518 175.621 760.518 174.781V173.844L759.131 173.902C758.05 173.941 757.262 174.124 756.768 174.449C756.279 174.768 756.035 175.26 756.035 175.924C756.035 176.406 756.178 176.78 756.465 177.047C756.751 177.307 757.181 177.438 757.754 177.438ZM770.039 177.34C770.599 177.34 771.159 177.252 771.719 177.076V178.805C771.465 178.915 771.136 179.007 770.732 179.078C770.335 179.156 769.922 179.195 769.492 179.195C767.318 179.195 766.23 178.049 766.23 175.758V169.938H764.756V168.922L766.338 168.082L767.119 165.797H768.535V168.199H771.611V169.938H768.535V175.719C768.535 176.272 768.672 176.682 768.945 176.949C769.225 177.21 769.59 177.34 770.039 177.34ZM776.182 179H773.887V168.199H776.182V179ZM773.75 165.338C773.75 164.928 773.861 164.612 774.082 164.391C774.31 164.169 774.632 164.059 775.049 164.059C775.452 164.059 775.765 164.169 775.986 164.391C776.214 164.612 776.328 164.928 776.328 165.338C776.328 165.729 776.214 166.038 775.986 166.266C775.765 166.487 775.452 166.598 775.049 166.598C774.632 166.598 774.31 166.487 774.082 166.266C773.861 166.038 773.75 165.729 773.75 165.338ZM778.369 183.805C777.679 183.805 777.106 183.723 776.65 183.561V181.744C777.093 181.861 777.546 181.92 778.008 181.92C778.984 181.92 779.473 181.367 779.473 180.26V168.199H781.768V180.416C781.768 181.529 781.475 182.372 780.889 182.945C780.309 183.518 779.469 183.805 778.369 183.805ZM779.336 165.338C779.336 164.928 779.447 164.612 779.668 164.391C779.896 164.169 780.218 164.059 780.635 164.059C781.038 164.059 781.351 164.169 781.572 164.391C781.8 164.612 781.914 164.928 781.914 165.338C781.914 165.729 781.8 166.038 781.572 166.266C781.351 166.487 781.038 166.598 780.635 166.598C780.218 166.598 779.896 166.487 779.668 166.266C779.447 166.038 779.336 165.729 779.336 165.338ZM791.816 179L791.357 177.496H791.279C790.758 178.154 790.234 178.603 789.707 178.844C789.18 179.078 788.503 179.195 787.676 179.195C786.615 179.195 785.785 178.909 785.186 178.336C784.593 177.763 784.297 176.952 784.297 175.904C784.297 174.791 784.71 173.951 785.537 173.385C786.364 172.818 787.624 172.509 789.316 172.457L791.182 172.398V171.822C791.182 171.132 791.019 170.618 790.693 170.279C790.374 169.934 789.876 169.762 789.199 169.762C788.646 169.762 788.115 169.843 787.607 170.006C787.1 170.169 786.611 170.361 786.143 170.582L785.4 168.941C785.986 168.635 786.628 168.404 787.324 168.248C788.021 168.085 788.678 168.004 789.297 168.004C790.671 168.004 791.706 168.303 792.402 168.902C793.105 169.501 793.457 170.442 793.457 171.725V179H791.816ZM788.398 177.438C789.232 177.438 789.899 177.206 790.4 176.744C790.908 176.275 791.162 175.621 791.162 174.781V173.844L789.775 173.902C788.695 173.941 787.907 174.124 787.412 174.449C786.924 174.768 786.68 175.26 786.68 175.924C786.68 176.406 786.823 176.78 787.109 177.047C787.396 177.307 787.826 177.438 788.398 177.438ZM806.162 179H803.857V172.359C803.857 171.526 803.688 170.904 803.35 170.494C803.018 170.084 802.487 169.879 801.758 169.879C800.788 169.879 800.078 170.165 799.629 170.738C799.18 171.311 798.955 172.271 798.955 173.619V179H796.66V168.199H798.457L798.779 169.615H798.896C799.222 169.101 799.684 168.704 800.283 168.424C800.882 168.144 801.546 168.004 802.275 168.004C804.867 168.004 806.162 169.322 806.162 171.959V179ZM811.65 179H809.355V168.199H811.65V179ZM809.219 165.338C809.219 164.928 809.329 164.612 809.551 164.391C809.779 164.169 810.101 164.059 810.518 164.059C810.921 164.059 811.234 164.169 811.455 164.391C811.683 164.612 811.797 164.928 811.797 165.338C811.797 165.729 811.683 166.038 811.455 166.266C811.234 166.487 810.921 166.598 810.518 166.598C810.101 166.598 809.779 166.487 809.551 166.266C809.329 166.038 809.219 165.729 809.219 165.338ZM822.354 173.297L823.652 171.676L826.914 168.199H829.561L825.215 172.838L829.834 179H827.139L823.672 174.264L822.412 175.299V179H820.137V163.805H822.412V171.217L822.295 173.297H822.354ZM839.199 179L838.877 177.584H838.76C838.441 178.085 837.985 178.479 837.393 178.766C836.807 179.052 836.136 179.195 835.381 179.195C834.072 179.195 833.096 178.87 832.451 178.219C831.807 177.568 831.484 176.581 831.484 175.26V168.199H833.799V174.859C833.799 175.686 833.968 176.308 834.307 176.725C834.645 177.135 835.176 177.34 835.898 177.34C836.862 177.34 837.568 177.053 838.018 176.48C838.473 175.901 838.701 174.934 838.701 173.58V168.199H841.006V179H839.199ZM848.301 177.34C848.861 177.34 849.421 177.252 849.98 177.076V178.805C849.727 178.915 849.398 179.007 848.994 179.078C848.597 179.156 848.184 179.195 847.754 179.195C845.579 179.195 844.492 178.049 844.492 175.758V169.938H843.018V168.922L844.6 168.082L845.381 165.797H846.797V168.199H849.873V169.938H846.797V175.719C846.797 176.272 846.934 176.682 847.207 176.949C847.487 177.21 847.852 177.34 848.301 177.34ZM854.443 179H852.148V168.199H854.443V179ZM852.012 165.338C852.012 164.928 852.122 164.612 852.344 164.391C852.572 164.169 852.894 164.059 853.311 164.059C853.714 164.059 854.027 164.169 854.248 164.391C854.476 164.612 854.59 164.928 854.59 165.338C854.59 165.729 854.476 166.038 854.248 166.266C854.027 166.487 853.714 166.598 853.311 166.598C852.894 166.598 852.572 166.487 852.344 166.266C852.122 166.038 852.012 165.729 852.012 165.338ZM867.236 179H864.932V172.359C864.932 171.526 864.762 170.904 864.424 170.494C864.092 170.084 863.561 169.879 862.832 169.879C861.862 169.879 861.152 170.165 860.703 170.738C860.254 171.311 860.029 172.271 860.029 173.619V179H857.734V168.199H859.531L859.854 169.615H859.971C860.296 169.101 860.758 168.704 861.357 168.424C861.956 168.144 862.62 168.004 863.35 168.004C865.941 168.004 867.236 169.322 867.236 171.959V179ZM879.551 168.199V169.459L877.705 169.801C877.874 170.029 878.014 170.309 878.125 170.641C878.236 170.973 878.291 171.324 878.291 171.695C878.291 172.809 877.907 173.684 877.139 174.322C876.37 174.96 875.312 175.279 873.965 175.279C873.62 175.279 873.307 175.253 873.027 175.201C872.533 175.507 872.285 175.865 872.285 176.275C872.285 176.523 872.399 176.708 872.627 176.832C872.861 176.956 873.288 177.018 873.906 177.018H875.791C876.982 177.018 877.887 177.271 878.506 177.779C879.124 178.287 879.434 179.02 879.434 179.977C879.434 181.201 878.929 182.145 877.92 182.809C876.911 183.473 875.452 183.805 873.545 183.805C872.074 183.805 870.951 183.544 870.176 183.023C869.401 182.503 869.014 181.76 869.014 180.797C869.014 180.133 869.222 179.573 869.639 179.117C870.062 178.668 870.651 178.355 871.406 178.18C871.1 178.049 870.846 177.841 870.645 177.555C870.449 177.262 870.352 176.956 870.352 176.637C870.352 176.233 870.465 175.891 870.693 175.611C870.921 175.331 871.26 175.055 871.709 174.781C871.149 174.54 870.693 174.15 870.342 173.609C869.997 173.062 869.824 172.424 869.824 171.695C869.824 170.523 870.192 169.615 870.928 168.971C871.67 168.326 872.725 168.004 874.092 168.004C874.398 168.004 874.717 168.027 875.049 168.072C875.387 168.111 875.641 168.154 875.811 168.199H879.551ZM871.064 180.68C871.064 181.174 871.286 181.555 871.729 181.822C872.178 182.089 872.806 182.223 873.613 182.223C874.863 182.223 875.794 182.044 876.406 181.686C877.018 181.327 877.324 180.852 877.324 180.26C877.324 179.791 877.155 179.456 876.816 179.254C876.484 179.059 875.863 178.961 874.951 178.961H873.213C872.555 178.961 872.031 179.114 871.641 179.42C871.257 179.732 871.064 180.152 871.064 180.68ZM872.051 171.695C872.051 172.372 872.223 172.893 872.568 173.258C872.92 173.622 873.421 173.805 874.072 173.805C875.4 173.805 876.064 173.095 876.064 171.676C876.064 170.973 875.898 170.432 875.566 170.055C875.241 169.671 874.743 169.479 874.072 169.479C873.408 169.479 872.904 169.667 872.559 170.045C872.22 170.423 872.051 170.973 872.051 171.695Z" fill="#131232"/>
<circle cx="1140" cy="150" r="27" fill="#2A97FC" fill-opacity="0.15"/>
<circle cx="1140" cy="150" r="28.5" stroke="#2A97FC" stroke-width="3"/>
<path d="M1146.24 155.062H1143.7V159H1141.84V155.062H1133.5V153.363L1141.64 141.773H1143.7V153.293H1146.24V155.062ZM1141.84 153.293V147.598C1141.84 146.48 1141.88 145.219 1141.95 143.812H1141.86C1141.48 144.562 1141.13 145.184 1140.8 145.676L1135.45 153.293H1141.84Z" fill="black"/>
<path d="M1018.95 231H1016.08L1009.06 219.623H1008.98L1009.03 220.258C1009.12 221.469 1009.17 222.576 1009.17 223.578V231H1007.05V216.723H1009.88L1016.88 228.041H1016.94C1016.93 227.891 1016.9 227.348 1016.87 226.41C1016.83 225.466 1016.81 224.73 1016.81 224.203V216.723H1018.95V231ZM1029.23 231L1028.77 229.496H1028.69C1028.17 230.154 1027.65 230.603 1027.12 230.844C1026.59 231.078 1025.91 231.195 1025.09 231.195C1024.03 231.195 1023.2 230.909 1022.6 230.336C1022.01 229.763 1021.71 228.952 1021.71 227.904C1021.71 226.791 1022.12 225.951 1022.95 225.385C1023.78 224.818 1025.04 224.509 1026.73 224.457L1028.59 224.398V223.822C1028.59 223.132 1028.43 222.618 1028.11 222.279C1027.79 221.934 1027.29 221.762 1026.61 221.762C1026.06 221.762 1025.53 221.843 1025.02 222.006C1024.51 222.169 1024.02 222.361 1023.55 222.582L1022.81 220.941C1023.4 220.635 1024.04 220.404 1024.74 220.248C1025.43 220.085 1026.09 220.004 1026.71 220.004C1028.08 220.004 1029.12 220.303 1029.81 220.902C1030.52 221.501 1030.87 222.442 1030.87 223.725V231H1029.23ZM1025.81 229.438C1026.64 229.438 1027.31 229.206 1027.81 228.744C1028.32 228.275 1028.57 227.621 1028.57 226.781V225.844L1027.19 225.902C1026.11 225.941 1025.32 226.124 1024.82 226.449C1024.34 226.768 1024.09 227.26 1024.09 227.924C1024.09 228.406 1024.24 228.78 1024.52 229.047C1024.81 229.307 1025.24 229.438 1025.81 229.438ZM1038.1 229.34C1038.66 229.34 1039.22 229.252 1039.78 229.076V230.805C1039.52 230.915 1039.19 231.007 1038.79 231.078C1038.39 231.156 1037.98 231.195 1037.55 231.195C1035.37 231.195 1034.29 230.049 1034.29 227.758V221.938H1032.81V220.922L1034.39 220.082L1035.18 217.797H1036.59V220.199H1039.67V221.938H1036.59V227.719C1036.59 228.272 1036.73 228.682 1037 228.949C1037.28 229.21 1037.65 229.34 1038.1 229.34ZM1044.24 231H1041.94V220.199H1044.24V231ZM1041.81 217.338C1041.81 216.928 1041.92 216.612 1042.14 216.391C1042.37 216.169 1042.69 216.059 1043.11 216.059C1043.51 216.059 1043.82 216.169 1044.04 216.391C1044.27 216.612 1044.38 216.928 1044.38 217.338C1044.38 217.729 1044.27 218.038 1044.04 218.266C1043.82 218.487 1043.51 218.598 1043.11 218.598C1042.69 218.598 1042.37 218.487 1042.14 218.266C1041.92 218.038 1041.81 217.729 1041.81 217.338ZM1046.43 235.805C1045.74 235.805 1045.16 235.723 1044.71 235.561V233.744C1045.15 233.861 1045.6 233.92 1046.06 233.92C1047.04 233.92 1047.53 233.367 1047.53 232.26V220.199H1049.82V232.416C1049.82 233.529 1049.53 234.372 1048.95 234.945C1048.37 235.518 1047.53 235.805 1046.43 235.805ZM1047.39 217.338C1047.39 216.928 1047.5 216.612 1047.72 216.391C1047.95 216.169 1048.27 216.059 1048.69 216.059C1049.1 216.059 1049.41 216.169 1049.63 216.391C1049.86 216.612 1049.97 216.928 1049.97 217.338C1049.97 217.729 1049.86 218.038 1049.63 218.266C1049.41 218.487 1049.1 218.598 1048.69 218.598C1048.27 218.598 1047.95 218.487 1047.72 218.266C1047.5 218.038 1047.39 217.729 1047.39 217.338ZM1059.87 231L1059.41 229.496H1059.34C1058.82 230.154 1058.29 230.603 1057.76 230.844C1057.24 231.078 1056.56 231.195 1055.73 231.195C1054.67 231.195 1053.84 230.909 1053.24 230.336C1052.65 229.763 1052.35 228.952 1052.35 227.904C1052.35 226.791 1052.77 225.951 1053.59 225.385C1054.42 224.818 1055.68 224.509 1057.37 224.457L1059.24 224.398V223.822C1059.24 223.132 1059.08 222.618 1058.75 222.279C1058.43 221.934 1057.93 221.762 1057.26 221.762C1056.7 221.762 1056.17 221.843 1055.66 222.006C1055.16 222.169 1054.67 222.361 1054.2 222.582L1053.46 220.941C1054.04 220.635 1054.68 220.404 1055.38 220.248C1056.08 220.085 1056.74 220.004 1057.35 220.004C1058.73 220.004 1059.76 220.303 1060.46 220.902C1061.16 221.501 1061.51 222.442 1061.51 223.725V231H1059.87ZM1056.46 229.438C1057.29 229.438 1057.96 229.206 1058.46 228.744C1058.96 228.275 1059.22 227.621 1059.22 226.781V225.844L1057.83 225.902C1056.75 225.941 1055.96 226.124 1055.47 226.449C1054.98 226.768 1054.74 227.26 1054.74 227.924C1054.74 228.406 1054.88 228.78 1055.17 229.047C1055.45 229.307 1055.88 229.438 1056.46 229.438ZM1074.22 231H1071.91V224.359C1071.91 223.526 1071.74 222.904 1071.41 222.494C1071.07 222.084 1070.54 221.879 1069.81 221.879C1068.84 221.879 1068.13 222.165 1067.69 222.738C1067.24 223.311 1067.01 224.271 1067.01 225.619V231H1064.72V220.199H1066.51L1066.84 221.615H1066.95C1067.28 221.101 1067.74 220.704 1068.34 220.424C1068.94 220.144 1069.6 220.004 1070.33 220.004C1072.92 220.004 1074.22 221.322 1074.22 223.959V231ZM1079.71 231H1077.41V220.199H1079.71V231ZM1077.28 217.338C1077.28 216.928 1077.39 216.612 1077.61 216.391C1077.84 216.169 1078.16 216.059 1078.57 216.059C1078.98 216.059 1079.29 216.169 1079.51 216.391C1079.74 216.612 1079.85 216.928 1079.85 217.338C1079.85 217.729 1079.74 218.038 1079.51 218.266C1079.29 218.487 1078.98 218.598 1078.57 218.598C1078.16 218.598 1077.84 218.487 1077.61 218.266C1077.39 218.038 1077.28 217.729 1077.28 217.338ZM1090.41 225.297L1091.71 223.676L1094.97 220.199H1097.62L1093.27 224.838L1097.89 231H1095.2L1091.73 226.264L1090.47 227.299V231H1088.19V215.805H1090.47V223.217L1090.35 225.297H1090.41ZM1109.22 225.58C1109.22 227.344 1108.77 228.721 1107.86 229.711C1106.96 230.701 1105.7 231.195 1104.08 231.195C1103.07 231.195 1102.18 230.967 1101.41 230.512C1100.63 230.056 1100.04 229.402 1099.62 228.549C1099.2 227.696 1098.99 226.706 1098.99 225.58C1098.99 223.829 1099.44 222.462 1100.34 221.479C1101.24 220.495 1102.51 220.004 1104.14 220.004C1105.7 220.004 1106.94 220.508 1107.85 221.518C1108.76 222.52 1109.22 223.874 1109.22 225.58ZM1101.36 225.58C1101.36 228.074 1102.28 229.32 1104.12 229.32C1105.94 229.32 1106.86 228.074 1106.86 225.58C1106.86 223.113 1105.94 221.879 1104.1 221.879C1103.14 221.879 1102.44 222.198 1102 222.836C1101.57 223.474 1101.36 224.389 1101.36 225.58ZM1113.7 216.723L1113.85 216.938C1113.5 218.298 1112.93 219.857 1112.13 221.615H1110.47C1110.92 219.734 1111.24 218.103 1111.45 216.723H1113.7ZM1121.21 220.004C1121.67 220.004 1122.05 220.036 1122.35 220.102L1122.13 222.24C1121.8 222.162 1121.46 222.123 1121.11 222.123C1120.2 222.123 1119.45 222.423 1118.88 223.021C1118.31 223.62 1118.03 224.398 1118.03 225.355V231H1115.73V220.199H1117.53L1117.83 222.104H1117.95C1118.31 221.459 1118.77 220.948 1119.35 220.57C1119.93 220.193 1120.55 220.004 1121.21 220.004ZM1126.66 231H1124.37V220.199H1126.66V231ZM1124.23 217.338C1124.23 216.928 1124.34 216.612 1124.56 216.391C1124.79 216.169 1125.11 216.059 1125.53 216.059C1125.93 216.059 1126.24 216.169 1126.46 216.391C1126.69 216.612 1126.81 216.928 1126.81 217.338C1126.81 217.729 1126.69 218.038 1126.46 218.266C1126.24 218.487 1125.93 218.598 1125.53 218.598C1125.11 218.598 1124.79 218.487 1124.56 218.266C1124.34 218.038 1124.23 217.729 1124.23 217.338ZM1139.45 231H1137.15V224.359C1137.15 223.526 1136.98 222.904 1136.64 222.494C1136.31 222.084 1135.78 221.879 1135.05 221.879C1134.08 221.879 1133.37 222.165 1132.92 222.738C1132.47 223.311 1132.25 224.271 1132.25 225.619V231H1129.95V220.199H1131.75L1132.07 221.615H1132.19C1132.51 221.101 1132.98 220.704 1133.57 220.424C1134.17 220.144 1134.84 220.004 1135.57 220.004C1138.16 220.004 1139.45 221.322 1139.45 223.959V231ZM1151.77 220.199V221.459L1149.92 221.801C1150.09 222.029 1150.23 222.309 1150.34 222.641C1150.45 222.973 1150.51 223.324 1150.51 223.695C1150.51 224.809 1150.12 225.684 1149.36 226.322C1148.59 226.96 1147.53 227.279 1146.18 227.279C1145.84 227.279 1145.52 227.253 1145.24 227.201C1144.75 227.507 1144.5 227.865 1144.5 228.275C1144.5 228.523 1144.62 228.708 1144.84 228.832C1145.08 228.956 1145.5 229.018 1146.12 229.018H1148.01C1149.2 229.018 1150.1 229.271 1150.72 229.779C1151.34 230.287 1151.65 231.02 1151.65 231.977C1151.65 233.201 1151.15 234.145 1150.14 234.809C1149.13 235.473 1147.67 235.805 1145.76 235.805C1144.29 235.805 1143.17 235.544 1142.39 235.023C1141.62 234.503 1141.23 233.76 1141.23 232.797C1141.23 232.133 1141.44 231.573 1141.86 231.117C1142.28 230.668 1142.87 230.355 1143.62 230.18C1143.32 230.049 1143.06 229.841 1142.86 229.555C1142.67 229.262 1142.57 228.956 1142.57 228.637C1142.57 228.233 1142.68 227.891 1142.91 227.611C1143.14 227.331 1143.48 227.055 1143.93 226.781C1143.37 226.54 1142.91 226.15 1142.56 225.609C1142.21 225.062 1142.04 224.424 1142.04 223.695C1142.04 222.523 1142.41 221.615 1143.14 220.971C1143.89 220.326 1144.94 220.004 1146.31 220.004C1146.61 220.004 1146.93 220.027 1147.27 220.072C1147.6 220.111 1147.86 220.154 1148.03 220.199H1151.77ZM1143.28 232.68C1143.28 233.174 1143.5 233.555 1143.95 233.822C1144.39 234.089 1145.02 234.223 1145.83 234.223C1147.08 234.223 1148.01 234.044 1148.62 233.686C1149.24 233.327 1149.54 232.852 1149.54 232.26C1149.54 231.791 1149.37 231.456 1149.03 231.254C1148.7 231.059 1148.08 230.961 1147.17 230.961H1145.43C1144.77 230.961 1144.25 231.114 1143.86 231.42C1143.47 231.732 1143.28 232.152 1143.28 232.68ZM1144.27 223.695C1144.27 224.372 1144.44 224.893 1144.79 225.258C1145.14 225.622 1145.64 225.805 1146.29 225.805C1147.62 225.805 1148.28 225.095 1148.28 223.676C1148.28 222.973 1148.12 222.432 1147.78 222.055C1147.46 221.671 1146.96 221.479 1146.29 221.479C1145.62 221.479 1145.12 221.667 1144.78 222.045C1144.44 222.423 1144.27 222.973 1144.27 223.695ZM1161.44 231L1157.33 220.199H1159.76L1161.95 226.479C1162.33 227.533 1162.56 228.386 1162.64 229.037H1162.71C1162.77 228.568 1163 227.715 1163.4 226.479L1165.6 220.199H1168.04L1163.92 231H1161.44ZM1176.44 231L1175.98 229.496H1175.9C1175.38 230.154 1174.85 230.603 1174.33 230.844C1173.8 231.078 1173.12 231.195 1172.29 231.195C1171.23 231.195 1170.4 230.909 1169.8 230.336C1169.21 229.763 1168.92 228.952 1168.92 227.904C1168.92 226.791 1169.33 225.951 1170.16 225.385C1170.98 224.818 1172.24 224.509 1173.94 224.457L1175.8 224.398V223.822C1175.8 223.132 1175.64 222.618 1175.31 222.279C1174.99 221.934 1174.5 221.762 1173.82 221.762C1173.26 221.762 1172.73 221.843 1172.23 222.006C1171.72 222.169 1171.23 222.361 1170.76 222.582L1170.02 220.941C1170.61 220.635 1171.25 220.404 1171.94 220.248C1172.64 220.085 1173.3 220.004 1173.92 220.004C1175.29 220.004 1176.32 220.303 1177.02 220.902C1177.72 221.501 1178.08 222.442 1178.08 223.725V231H1176.44ZM1173.02 229.438C1173.85 229.438 1174.52 229.206 1175.02 228.744C1175.53 228.275 1175.78 227.621 1175.78 226.781V225.844L1174.39 225.902C1173.31 225.941 1172.53 226.124 1172.03 226.449C1171.54 226.768 1171.3 227.26 1171.3 227.924C1171.3 228.406 1171.44 228.78 1171.73 229.047C1172.01 229.307 1172.44 229.438 1173.02 229.438ZM1191.99 220.004C1193.34 220.004 1194.39 220.492 1195.14 221.469C1195.89 222.445 1196.27 223.816 1196.27 225.58C1196.27 227.351 1195.89 228.731 1195.13 229.721C1194.37 230.704 1193.31 231.195 1191.95 231.195C1190.59 231.195 1189.52 230.704 1188.77 229.721H1188.61L1188.19 231H1186.47V215.805H1188.77V219.418C1188.77 219.685 1188.76 220.082 1188.73 220.609C1188.7 221.137 1188.68 221.472 1188.67 221.615H1188.77C1189.5 220.541 1190.57 220.004 1191.99 220.004ZM1191.4 221.879C1190.47 221.879 1189.8 222.152 1189.39 222.699C1188.99 223.24 1188.78 224.148 1188.77 225.424V225.58C1188.77 226.895 1188.98 227.849 1189.39 228.441C1189.81 229.027 1190.49 229.32 1191.44 229.32C1192.25 229.32 1192.86 228.998 1193.28 228.354C1193.7 227.709 1193.92 226.778 1193.92 225.561C1193.92 223.106 1193.08 221.879 1191.4 221.879ZM1205.69 231L1205.23 229.496H1205.16C1204.64 230.154 1204.11 230.603 1203.58 230.844C1203.06 231.078 1202.38 231.195 1201.55 231.195C1200.49 231.195 1199.66 230.909 1199.06 230.336C1198.47 229.763 1198.17 228.952 1198.17 227.904C1198.17 226.791 1198.59 225.951 1199.41 225.385C1200.24 224.818 1201.5 224.509 1203.19 224.457L1205.06 224.398V223.822C1205.06 223.132 1204.9 222.618 1204.57 222.279C1204.25 221.934 1203.75 221.762 1203.08 221.762C1202.52 221.762 1201.99 221.843 1201.48 222.006C1200.98 222.169 1200.49 222.361 1200.02 222.582L1199.28 220.941C1199.86 220.635 1200.5 220.404 1201.2 220.248C1201.9 220.085 1202.56 220.004 1203.17 220.004C1204.55 220.004 1205.58 220.303 1206.28 220.902C1206.98 221.501 1207.33 222.442 1207.33 223.725V231H1205.69ZM1202.28 229.438C1203.11 229.438 1203.78 229.206 1204.28 228.744C1204.79 228.275 1205.04 227.621 1205.04 226.781V225.844L1203.65 225.902C1202.57 225.941 1201.78 226.124 1201.29 226.449C1200.8 226.768 1200.56 227.26 1200.56 227.924C1200.56 228.406 1200.7 228.78 1200.99 229.047C1201.27 229.307 1201.7 229.438 1202.28 229.438ZM1220.04 231H1217.73V224.359C1217.73 223.526 1217.57 222.904 1217.23 222.494C1216.89 222.084 1216.36 221.879 1215.63 221.879C1214.67 221.879 1213.96 222.169 1213.51 222.748C1213.06 223.321 1212.83 224.285 1212.83 225.639V231H1210.54V215.805H1212.83V219.662C1212.83 220.281 1212.79 220.941 1212.71 221.645H1212.86C1213.17 221.124 1213.61 220.72 1214.16 220.434C1214.72 220.147 1215.37 220.004 1216.11 220.004C1218.73 220.004 1220.04 221.322 1220.04 223.959V231ZM1232.81 225.58C1232.81 227.344 1232.36 228.721 1231.46 229.711C1230.55 230.701 1229.29 231.195 1227.68 231.195C1226.67 231.195 1225.77 230.967 1225 230.512C1224.23 230.056 1223.63 229.402 1223.21 228.549C1222.8 227.696 1222.59 226.706 1222.59 225.58C1222.59 223.829 1223.04 222.462 1223.94 221.479C1224.83 220.495 1226.1 220.004 1227.73 220.004C1229.3 220.004 1230.53 220.508 1231.45 221.518C1232.36 222.52 1232.81 223.874 1232.81 225.58ZM1224.95 225.58C1224.95 228.074 1225.87 229.32 1227.71 229.32C1229.54 229.32 1230.45 228.074 1230.45 225.58C1230.45 223.113 1229.53 221.879 1227.7 221.879C1226.73 221.879 1226.03 222.198 1225.6 222.836C1225.17 223.474 1224.95 224.389 1224.95 225.58ZM1237.75 231H1235.46V215.805H1237.75V231ZM1247.8 231L1247.34 229.496H1247.27C1246.74 230.154 1246.22 230.603 1245.69 230.844C1245.17 231.078 1244.49 231.195 1243.66 231.195C1242.6 231.195 1241.77 230.909 1241.17 230.336C1240.58 229.763 1240.28 228.952 1240.28 227.904C1240.28 226.791 1240.7 225.951 1241.52 225.385C1242.35 224.818 1243.61 224.509 1245.3 224.457L1247.17 224.398V223.822C1247.17 223.132 1247.01 222.618 1246.68 222.279C1246.36 221.934 1245.86 221.762 1245.19 221.762C1244.63 221.762 1244.1 221.843 1243.59 222.006C1243.09 222.169 1242.6 222.361 1242.13 222.582L1241.39 220.941C1241.97 220.635 1242.61 220.404 1243.31 220.248C1244.01 220.085 1244.66 220.004 1245.28 220.004C1246.66 220.004 1247.69 220.303 1248.39 220.902C1249.09 221.501 1249.44 222.442 1249.44 223.725V231H1247.8ZM1244.38 229.438C1245.22 229.438 1245.89 229.206 1246.39 228.744C1246.89 228.275 1247.15 227.621 1247.15 226.781V225.844L1245.76 225.902C1244.68 225.941 1243.89 226.124 1243.4 226.449C1242.91 226.768 1242.67 227.26 1242.67 227.924C1242.67 228.406 1242.81 228.78 1243.1 229.047C1243.38 229.307 1243.81 229.438 1244.38 229.438ZM1262.15 231H1259.84V224.359C1259.84 223.526 1259.67 222.904 1259.34 222.494C1259 222.084 1258.47 221.879 1257.74 221.879C1256.77 221.879 1256.06 222.165 1255.62 222.738C1255.17 223.311 1254.94 224.271 1254.94 225.619V231H1252.65V220.199H1254.44L1254.77 221.615H1254.88C1255.21 221.101 1255.67 220.704 1256.27 220.424C1256.87 220.144 1257.53 220.004 1258.26 220.004C1260.85 220.004 1262.15 221.322 1262.15 223.959V231ZM1274.46 220.199V221.459L1272.62 221.801C1272.79 222.029 1272.93 222.309 1273.04 222.641C1273.15 222.973 1273.2 223.324 1273.2 223.695C1273.2 224.809 1272.82 225.684 1272.05 226.322C1271.28 226.96 1270.22 227.279 1268.88 227.279C1268.53 227.279 1268.22 227.253 1267.94 227.201C1267.44 227.507 1267.2 227.865 1267.2 228.275C1267.2 228.523 1267.31 228.708 1267.54 228.832C1267.77 228.956 1268.2 229.018 1268.82 229.018H1270.7C1271.89 229.018 1272.8 229.271 1273.42 229.779C1274.04 230.287 1274.35 231.02 1274.35 231.977C1274.35 233.201 1273.84 234.145 1272.83 234.809C1271.82 235.473 1270.36 235.805 1268.46 235.805C1266.99 235.805 1265.86 235.544 1265.09 235.023C1264.31 234.503 1263.93 233.76 1263.93 232.797C1263.93 232.133 1264.13 231.573 1264.55 231.117C1264.97 230.668 1265.56 230.355 1266.32 230.18C1266.01 230.049 1265.76 229.841 1265.56 229.555C1265.36 229.262 1265.26 228.956 1265.26 228.637C1265.26 228.233 1265.38 227.891 1265.61 227.611C1265.83 227.331 1266.17 227.055 1266.62 226.781C1266.06 226.54 1265.61 226.15 1265.25 225.609C1264.91 225.062 1264.74 224.424 1264.74 223.695C1264.74 222.523 1265.1 221.615 1265.84 220.971C1266.58 220.326 1267.64 220.004 1269 220.004C1269.31 220.004 1269.63 220.027 1269.96 220.072C1270.3 220.111 1270.55 220.154 1270.72 220.199H1274.46ZM1265.98 232.68C1265.98 233.174 1266.2 233.555 1266.64 233.822C1267.09 234.089 1267.72 234.223 1268.53 234.223C1269.78 234.223 1270.71 234.044 1271.32 233.686C1271.93 233.327 1272.24 232.852 1272.24 232.26C1272.24 231.791 1272.07 231.456 1271.73 231.254C1271.4 231.059 1270.77 230.961 1269.86 230.961H1268.12C1267.47 230.961 1266.94 231.114 1266.55 231.42C1266.17 231.732 1265.98 232.152 1265.98 232.68ZM1266.96 223.695C1266.96 224.372 1267.14 224.893 1267.48 225.258C1267.83 225.622 1268.33 225.805 1268.98 225.805C1270.31 225.805 1270.98 225.095 1270.98 223.676C1270.98 222.973 1270.81 222.432 1270.48 222.055C1270.15 221.671 1269.65 221.479 1268.98 221.479C1268.32 221.479 1267.82 221.667 1267.47 222.045C1267.13 222.423 1266.96 222.973 1266.96 223.695Z" fill="#131232"/>
</svg>
