<svg width="30" height="30" viewBox="0 0 30 30" fill="none" xmlns="http://www.w3.org/2000/svg">
<path d="M12.4226 17.5774C9.55919 14.7139 8.91263 11.8505 8.76677 10.7033C8.72601 10.386 8.83518 10.0679 9.06212 9.84256L11.3794 7.52635C11.7202 7.1857 11.7807 6.65479 11.5252 6.24618L7.83574 0.517217C7.55307 0.0647591 6.97269 -0.0985373 6.49556 0.140148L0.572633 2.92963C0.186802 3.11962 -0.0401392 3.52956 0.00366774 3.95739C0.314013 6.90567 1.59936 14.1533 8.72177 21.2762C15.8442 28.3991 23.0907 29.6839 26.0406 29.9943C26.4684 30.0381 26.8783 29.8112 27.0683 29.4253L29.8578 23.5024C30.0956 23.0263 29.9334 22.4475 29.4828 22.1643L23.7538 18.4758C23.3455 18.2201 22.8146 18.2801 22.4737 18.6207L20.1575 20.9379C19.9321 21.1648 19.614 21.274 19.2968 21.2333C18.1495 21.0874 15.2861 20.4408 12.4226 17.5774Z" fill="#020057"/>
<path d="M23.793 16.0345C23.2217 16.0345 22.7586 15.5713 22.7586 15C22.7537 10.7171 19.2829 7.24624 14.9999 7.24139C14.4286 7.24139 13.9655 6.77824 13.9655 6.20691C13.9655 5.63558 14.4286 5.17242 14.9999 5.17242C20.4251 5.17841 24.8215 9.57487 24.8275 15C24.8275 15.5713 24.3644 16.0345 23.793 16.0345Z" fill="#020057"/>
<path d="M28.9655 16.0345C28.3941 16.0345 27.931 15.5713 27.931 15C27.923 7.8617 22.1382 2.07695 14.9999 2.06897C14.4286 2.06897 13.9655 1.60581 13.9655 1.03448C13.9655 0.463154 14.4286 0 14.9999 0C23.2804 0.009122 29.9908 6.71951 29.9999 15C29.9999 15.2744 29.891 15.5375 29.6969 15.7315C29.5029 15.9255 29.2398 16.0345 28.9655 16.0345Z" fill="#020057"/>
</svg>
