<svg width="30" height="30" viewBox="0 0 30 30" fill="none" xmlns="http://www.w3.org/2000/svg">
<g clip-path="url(#clip0)">
<path d="M15 10.1721C12.3363 10.1721 10.172 12.3363 10.172 15C10.172 17.6637 12.3363 19.828 15 19.828C17.6637 19.828 19.8279 17.6637 19.8279 15C19.8279 12.3363 17.6637 10.1721 15 10.1721Z" fill="#020057"/>
<path d="M29.6504 14.0011C28.0189 11.97 22.192 5.34406 15 5.34406C7.80799 5.34406 1.98113 11.97 0.349612 14.0011C-0.116537 14.5671 -0.116537 15.3995 0.349612 15.9989C1.98113 18.03 7.80799 24.6559 15 24.6559C22.192 24.6559 28.0189 18.03 29.6504 15.9989C30.1165 15.4328 30.1165 14.6004 29.6504 14.0011ZM15 21.9922C11.1376 21.9922 8.00777 18.8624 8.00777 15C8.00777 11.1376 11.1376 8.00776 15 8.00776C18.8624 8.00776 21.9922 11.1376 21.9922 15C21.9922 18.8624 18.8624 21.9922 15 21.9922Z" fill="#020057"/>
<path d="M22 15.0001C22 18.8661 18.866 22.0001 15 22.0001C11.134 22.0001 8 18.8661 8 15.0001C8 11.1341 11.134 8.00006 15 8.00006C18.866 8.00006 22 11.1341 22 15.0001ZM10.24 15.0001C10.24 17.6289 12.3711 19.7601 15 19.7601C17.6289 19.7601 19.76 17.6289 19.76 15.0001C19.76 12.3712 17.6289 10.2401 15 10.2401C12.3711 10.2401 10.24 12.3712 10.24 15.0001Z" fill="white"/>
<path d="M15 12.0044C14.613 11.9825 14.2258 12.0438 13.8622 12.1846C13.4985 12.3253 13.1661 12.5426 12.8852 12.8231C12.6043 13.1036 12.3809 13.4413 12.2287 13.8156C12.0765 14.19 11.9987 14.593 12 15.0001L13.8416 14.9935C13.8411 14.8497 13.8686 14.7074 13.9223 14.5753C13.9761 14.4431 14.0549 14.3238 14.1541 14.2248C14.2533 14.1258 14.3707 14.049 14.4991 13.9993C14.6275 13.9496 14.7642 13.928 14.9008 13.9357L15 12.0044Z" fill="white"/>
</g>
<defs>
<clipPath id="clip0">
<rect width="30" height="30" fill="white"/>
</clipPath>
</defs>
</svg>
